<svg preserveAspectRatio="none" width="100%" height="100%" overflow="visible" style="display: block;" viewBox="0 0 48 48" fill="none" xmlns="http://www.w3.org/2000/svg">
<path id="Shape" d="M24 0C28.6754 6.36982e-08 32.5705 0.334575 35.6846 0.780273C41.7848 1.65351 46.3465 6.21524 47.2197 12.3154C47.6654 15.4295 48 19.3246 48 24C48 28.6754 47.6654 32.5705 47.2197 35.6846C46.3465 41.7848 41.7848 46.3465 35.6846 47.2197C32.5705 47.6654 28.6754 48 24 48C19.3246 48 15.4295 47.6654 12.3154 47.2197C6.21524 46.3465 1.65351 41.7848 0.780273 35.6846C0.334574 32.5705 0 28.6754 0 24C4.54987e-08 19.3246 0.334574 15.4295 0.780273 12.3154C1.65351 6.21524 6.21524 1.65351 12.3154 0.780273C15.4295 0.334574 19.3246 0 24 0Z" fill="var(--fill-0, #3778FB)"/>
</svg>
