<svg preserveAspectRatio="none" width="100%" height="100%" overflow="visible" style="display: block;" viewBox="0 0 20 20" fill="none" xmlns="http://www.w3.org/2000/svg">
<g id="bonuses-sign-box">
<g id="logo">
<path d="M8.81523 10.7104H11.1412L10.0325 7.15479H9.98907L8.81523 10.7104Z" fill="var(--fill-0, #897EFF)"/>
<path fill-rule="evenodd" clip-rule="evenodd" d="M18 10C18 14.4182 14.4182 18 10 18C5.58172 18 2 14.4182 2 10C2 5.58172 5.58172 2 10 2C14.4182 2 18 5.58172 18 10ZM11.5323 6.4983L14 14H12.1738L11.6194 12.2166H8.31523L7.71733 14H6L8.5896 6.4983C8.84072 5.77066 9.13336 5.2 10.076 5.2C11.0183 5.2 11.2938 5.77306 11.5323 6.4983Z" fill="var(--fill-0, #897EFF)"/>
</g>
</g>
</svg>
