<svg preserveAspectRatio="none" width="100%" height="100%" overflow="visible" style="display: block;" viewBox="0 0 601.032 459.645" fill="none" xmlns="http://www.w3.org/2000/svg">
<g id="Vector 234254873" opacity="0.1" filter="url(#filter0_f_0_135)">
<path d="M210.25 201.217L182.125 193.926C163.725 189.156 144.17 194.328 130.535 207.571C101.065 236.194 112.708 285.899 151.825 298.455L278.786 339.208C322.52 353.246 370.394 343.994 405.75 314.673L454.242 274.455C479.687 253.353 491.63 220.075 485.41 187.609C476.868 143.02 436.664 111.623 391.334 114.141L373.513 115.131C344.349 116.752 318.181 133.577 304.603 159.439C286.674 193.59 247.587 210.897 210.25 201.217Z" fill="url(#paint0_linear_0_135)"/>
</g>
<defs>
<filter id="filter0_f_0_135" x="0" y="-3.8147e-06" width="601.032" height="459.645" filterUnits="userSpaceOnUse" color-interpolation-filters="sRGB">
<feFlood flood-opacity="0" result="BackgroundImageFix"/>
<feBlend mode="normal" in="SourceGraphic" in2="BackgroundImageFix" result="shape"/>
<feGaussianBlur stdDeviation="57" result="effect1_foregroundBlur_0_135"/>
</filter>
<linearGradient id="paint0_linear_0_135" x1="280.98" y1="361.312" x2="280.98" y2="109.744" gradientUnits="userSpaceOnUse">
<stop stop-color="#0004E1"/>
<stop offset="0.841346" stop-color="#6424EF"/>
</linearGradient>
</defs>
</svg>
