<svg preserveAspectRatio="none" width="100%" height="100%" overflow="visible" style="display: block;" viewBox="0 0 20.0001 20" fill="none" xmlns="http://www.w3.org/2000/svg">
<g id="Fixer">
<path id="PaintMe" d="M17 4.26172V15.7393L9.34082 18.0967L7 16.5361V3.46582L8.94531 2.16895L9.33984 1.90527L17 4.26172ZM5 17H3V3H5V17ZM9 4.53613V15.4658L9.65918 15.9053L15 14.2617V5.73828L9.65918 4.0957L9 4.53613ZM11 9C11.5522 9 11.9999 9.44779 12 10C11.9999 10.5522 11.5522 11 11 11C10.4478 11 10.0001 10.5522 10 10C10.0001 9.44779 10.4478 9 11 9Z" fill="var(--fill-0, #040415)" fill-opacity="0.47"/>
</g>
</svg>
