<svg preserveAspectRatio="none" width="100%" height="100%" overflow="visible" style="display: block;" viewBox="0 0 20.0001 20" fill="none" xmlns="http://www.w3.org/2000/svg">
<g id="Fixer">
<path id="PaintMe" d="M11.0002 3.09961C13.2822 3.56298 15 5.58127 15.0002 8V10.1719C15.0002 10.253 15.0171 10.3336 15.049 10.4082L16.1203 12.9092C16.5442 13.8988 15.818 14.9998 14.7414 15H13.0002C13.0002 16.6567 11.6569 17.9998 10.0002 18C8.34333 18 7.00019 16.6569 7.00019 15H5.258C4.18156 14.9995 3.45607 13.8987 3.88007 12.9092L4.95136 10.4082C4.98331 10.3336 5.00016 10.253 5.00019 10.1719V8C5.00019 5.58118 6.71808 3.56299 9.00019 3.09961V1H11.0002V3.09961ZM9.00019 15C9.00019 15.5523 9.4479 16 10.0002 16C10.5523 15.9998 11.0002 15.5522 11.0002 15H9.00019ZM10.0002 5C8.34352 5.00016 7.00019 6.3433 7.00019 8V10.1719C7.00016 10.5239 6.92887 10.8727 6.79022 11.1963L6.01679 13H13.9836L13.2101 11.1953C13.0717 10.8719 13.0002 10.5237 13.0002 10.1719V8C13.0001 6.34343 11.6567 5.00024 10.0002 5Z" fill="var(--fill-0, #040415)" fill-opacity="0.47"/>
</g>
</svg>
