<svg preserveAspectRatio="none" width="100%" height="100%" overflow="visible" style="display: block;" viewBox="0 0 248 64" fill="none" xmlns="http://www.w3.org/2000/svg">
<g id="logo">
<rect width="248" height="64" fill="#F2F3F5"/>
<g id="LogoCell" clip-path="url(#clip0_0_94)">
<path id="bg" d="M12.6502 22.2631C13.3779 17.1794 17.1794 13.3779 22.2631 12.6502C24.8582 12.2788 28.1038 12 32 12C35.8962 12 39.1418 12.2788 41.7368 12.6502C46.8206 13.3779 50.6221 17.1794 51.3498 22.2631C51.7212 24.8582 52 28.1038 52 32C52 35.8962 51.7212 39.1418 51.3498 41.7368C50.6221 46.8206 46.8206 50.6221 41.7368 51.3498C39.1418 51.7212 35.8962 52 32 52C28.1038 52 24.8582 51.7212 22.2631 51.3498C17.1794 50.6221 13.3779 46.8206 12.6502 41.7369C12.2788 39.1418 12 35.8962 12 32C12 28.1038 12.2788 24.8582 12.6502 22.2631Z" fill="var(--fill-0, #EF3124)"/>
<g id="alfa-bank-sign-box_m_white">
<path id="logo_2" fill-rule="evenodd" clip-rule="evenodd" d="M32.103 22C30.6183 22 30.1571 22.879 29.7614 23.9998L25.6816 35.557H28.387L29.3289 32.8097H34.5346L35.4079 35.557H38.2848L34.3968 23.9998C34.021 22.8826 33.5877 22 32.103 22ZM32.0317 25.0108H31.9633L30.1137 30.4887H33.7784L32.0317 25.0108ZM38.593 41.9999H25.4072V39.2696H38.593V41.9999Z" fill="var(--fill-0, white)"/>
</g>
</g>
<g id="&#208;&#144;&#208;&#187;&#209;&#140;&#209;&#132;&#208;&#176;-&#208;&#145;&#208;&#184;&#208;&#183;&#208;&#189;&#208;&#181;&#209;&#129;">
<path d="M73.5649 36.4878L72.5965 34.0106H67.2619L66.2935 36.4878H64L68.8249 24.3902H71.1524L75.9774 36.4878H73.5649ZM68.0434 32.0424H71.815L69.9292 27.2577L68.0434 32.0424Z" fill="var(--fill-0, #030306)" fill-opacity="0.88"/>
<path d="M78.2567 32.5854L78.6644 27.9024H85.1033V36.4878H82.9457V29.7519H80.4653L80.2105 32.8059C80.0972 34.1407 79.8254 35.1022 79.395 35.6904C78.9646 36.2785 78.251 36.5726 77.2543 36.5726H76.6767V34.6045H76.8806C77.3789 34.6045 77.713 34.4687 77.8829 34.1972C78.0642 33.9258 78.1887 33.3885 78.2567 32.5854Z" fill="var(--fill-0, #030306)" fill-opacity="0.88"/>
<path d="M89.8055 30.5663H91.7423C92.9088 30.5663 93.7696 30.8378 94.3246 31.3807C94.8909 31.9123 95.1741 32.6193 95.1741 33.5016C95.1741 34.3499 94.8909 35.0626 94.3246 35.6394C93.7583 36.205 92.9032 36.4878 91.7592 36.4878H87.6479V27.9024H89.8055V30.5663ZM91.4364 32.3309H89.8055V34.7402H91.4364C92.4558 34.7402 92.9655 34.3273 92.9655 33.5016C92.9655 33.1283 92.8352 32.8399 92.5747 32.6363C92.3142 32.4327 91.9348 32.3309 91.4364 32.3309Z" fill="var(--fill-0, #030306)" fill-opacity="0.88"/>
<path d="M99.2493 30.4136C98.8303 30.866 98.6207 31.4599 98.6207 32.1951C98.6207 32.9304 98.8303 33.5299 99.2493 33.9936C99.6684 34.4461 100.246 34.7119 100.982 34.7911V29.5992C100.246 29.6783 99.6684 29.9498 99.2493 30.4136ZM104.89 33.9936C105.309 33.5299 105.518 32.9304 105.518 32.1951C105.518 31.4599 105.309 30.866 104.89 30.4136C104.471 29.9498 103.893 29.6783 103.157 29.5992V34.7911C103.893 34.7119 104.471 34.4461 104.89 33.9936ZM103.157 40H100.982V36.6914C99.6684 36.5896 98.5811 36.1428 97.7203 35.351C96.8595 34.5479 96.4291 33.4959 96.4291 32.1951C96.4291 30.9056 96.8539 29.8593 97.7033 29.0562C98.5641 28.2418 99.6571 27.7893 100.982 27.6988V24H103.157V27.6988C104.459 27.7554 105.541 28.1909 106.402 29.0053C107.274 29.8197 107.71 30.883 107.71 32.1951C107.71 33.4959 107.285 34.5536 106.436 35.368C105.586 36.1824 104.493 36.6235 103.157 36.6914V40Z" fill="var(--fill-0, #030306)" fill-opacity="0.88"/>
<path d="M117.647 36.5387H116.967C115.948 36.5387 115.32 36.1541 115.082 35.3849C114.515 36.2446 113.66 36.6744 112.516 36.6744C111.531 36.6744 110.727 36.4086 110.104 35.877C109.492 35.3454 109.186 34.644 109.186 33.7731C109.186 32.9247 109.47 32.2743 110.036 31.8218C110.602 31.3694 111.395 31.1432 112.414 31.1432H114.963V31.1092C114.963 30.6002 114.799 30.193 114.47 29.8876C114.153 29.5709 113.723 29.4125 113.179 29.4125C112.397 29.4125 111.865 29.701 111.582 30.2778H109.424C109.447 30.0629 109.526 29.8254 109.662 29.5652C109.798 29.3051 109.996 29.0279 110.257 28.7338C110.517 28.4284 110.902 28.1796 111.412 27.9873C111.922 27.7837 112.499 27.6819 113.145 27.6819C114.402 27.6819 115.365 27.9986 116.033 28.632C116.713 29.2542 117.052 30.0969 117.052 31.1601V34.0106C117.052 34.4744 117.251 34.7345 117.647 34.7911V36.5387ZM111.786 34.7063C112.08 34.9438 112.494 35.0626 113.026 35.0626C113.558 35.0626 114.011 34.9212 114.385 34.6384C114.77 34.3443 114.963 33.9767 114.963 33.5355V32.6363H112.754C112.324 32.6363 111.978 32.7324 111.718 32.9247C111.469 33.117 111.344 33.3885 111.344 33.7391C111.344 34.1463 111.491 34.4687 111.786 34.7063Z" fill="var(--fill-0, #030306)" fill-opacity="0.88"/>
<path d="M119.469 32.4327V30.4305H125.126V32.4327H119.469Z" fill="var(--fill-0, #030306)" fill-opacity="0.88"/>
<path d="M130.231 29.158H133.289C134.693 29.158 135.775 29.4804 136.534 30.1251C137.293 30.7699 137.672 31.6635 137.672 32.8059C137.672 34.0049 137.293 34.9212 136.534 35.5546C135.786 36.1767 134.705 36.4878 133.289 36.4878H127.954V24.4411H136.67V26.4772H130.231V29.158ZM133.17 31.0923H130.231V34.4687H133.17C134.608 34.4687 135.327 33.9088 135.327 32.789C135.327 32.2686 135.141 31.8558 134.767 31.5504C134.404 31.245 133.872 31.0923 133.17 31.0923Z" fill="var(--fill-0, #030306)" fill-opacity="0.88"/>
<path d="M139.86 36.4878V27.9024H141.983V33.4507L145.704 27.9024H147.845V36.4878H145.704V30.9056L141.983 36.4878H139.86Z" fill="var(--fill-0, #030306)" fill-opacity="0.88"/>
<path d="M153.776 34.9947C154.909 34.9947 155.475 34.6214 155.475 33.8749C155.475 33.2527 155.056 32.9417 154.218 32.9417H152.859V31.3637H154.15C154.931 31.3637 155.322 31.0414 155.322 30.3966C155.322 29.7292 154.858 29.3955 153.929 29.3955C153 29.3955 152.36 29.7745 152.009 30.5323H149.886C150.01 29.7519 150.424 29.0845 151.126 28.5302C151.828 27.9647 152.763 27.6819 153.929 27.6819C155.062 27.6819 155.934 27.9081 156.545 28.3606C157.157 28.813 157.463 29.4464 157.463 30.2609C157.463 30.7246 157.333 31.1205 157.072 31.4486C156.812 31.7653 156.506 31.9745 156.155 32.0764C156.596 32.1895 156.959 32.4044 157.242 32.7211C157.536 33.0265 157.684 33.4281 157.684 33.9258C157.684 34.7854 157.333 35.4641 156.63 35.9618C155.94 36.4595 154.988 36.7084 153.776 36.7084C152.542 36.7084 151.573 36.4143 150.871 35.8261C150.18 35.2266 149.795 34.5196 149.716 33.7052H151.788C151.913 34.0672 152.14 34.3726 152.468 34.6214C152.808 34.8703 153.244 34.9947 153.776 34.9947Z" fill="var(--fill-0, #030306)" fill-opacity="0.88"/>
<path d="M159.703 36.4878V27.9024H161.86V31.1771H165.36V27.9024H167.518V36.4878H165.36V33.0265H161.86V36.4878H159.703Z" fill="var(--fill-0, #030306)" fill-opacity="0.88"/>
<path d="M170.667 28.9374C171.414 28.1004 172.405 27.6819 173.64 27.6819C174.875 27.6819 175.86 28.0947 176.596 28.9205C177.332 29.7349 177.7 30.8208 177.7 32.1782V32.5345H171.703C171.737 33.2358 171.941 33.807 172.315 34.2481C172.689 34.678 173.187 34.8929 173.81 34.8929C174.557 34.8929 175.135 34.6158 175.543 34.0615H177.649C177.615 34.3217 177.525 34.5875 177.378 34.859C177.23 35.1304 177.015 35.4132 176.732 35.7073C176.449 36.0014 176.052 36.2446 175.543 36.4369C175.033 36.6179 174.455 36.7084 173.81 36.7084C172.519 36.7084 171.482 36.2899 170.701 35.4528C169.931 34.6045 169.546 33.5186 169.546 32.1951C169.546 30.8491 169.919 29.7632 170.667 28.9374ZM173.64 29.3446C172.575 29.3446 171.941 29.9328 171.737 31.1092H175.509C175.294 29.9328 174.671 29.3446 173.64 29.3446Z" fill="var(--fill-0, #030306)" fill-opacity="0.88"/>
<path d="M187 30.6511H184.91C184.571 29.9385 184.021 29.5822 183.262 29.5822C182.696 29.5822 182.243 29.831 181.903 30.3287C181.563 30.8151 181.394 31.4373 181.394 32.1951C181.394 32.953 181.563 33.5808 181.903 34.0785C182.254 34.5649 182.713 34.8081 183.279 34.8081C184.027 34.8081 184.576 34.4518 184.927 33.7391H187C186.977 33.9993 186.892 34.2821 186.745 34.5875C186.609 34.8929 186.405 35.2153 186.134 35.5546C185.862 35.8826 185.471 36.1598 184.961 36.386C184.463 36.6009 183.885 36.7084 183.228 36.7084C182.062 36.7084 181.093 36.2899 180.323 35.4528C179.564 34.6045 179.185 33.5186 179.185 32.1951C179.185 30.8717 179.564 29.7914 180.323 28.9544C181.082 28.106 182.045 27.6819 183.211 27.6819C183.857 27.6819 184.435 27.7893 184.944 28.0042C185.454 28.2192 185.845 28.4906 186.117 28.8187C186.388 29.1467 186.598 29.4691 186.745 29.7858C186.892 30.0912 186.977 30.3796 187 30.6511Z" fill="var(--fill-0, #030306)" fill-opacity="0.88"/>
</g>
</g>
<defs>
<clipPath id="clip0_0_94">
<rect width="40" height="40" fill="white" transform="translate(12 12)"/>
</clipPath>
</defs>
</svg>
