<svg preserveAspectRatio="none" width="100%" height="100%" overflow="visible" style="display: block;" viewBox="0 0 20 20" fill="none" xmlns="http://www.w3.org/2000/svg">
<g id="import-payments-sign-box">
<g id="logo">
<path d="M16.5 15H17.5L17.5684 15.0049C17.7252 15.0266 17.8643 15.1218 17.9404 15.2637C18.0274 15.4262 18.0182 15.624 17.916 15.7773L15.916 18.7773C15.8233 18.9164 15.6671 18.9999 15.5 19C15.3329 19 15.1767 18.9164 15.084 18.7773L13.084 15.7773C12.9817 15.6239 12.9726 15.4263 13.0596 15.2637C13.1467 15.1014 13.3158 15 13.5 15H14.5V12H16.5V15Z" fill="var(--fill-0, #030306)" fill-opacity="0.88"/>
<path d="M9 2C10.6569 2 12 3.34315 12 5V6H13C14.6569 6 16 7.34315 16 9V10H14V9C14 8.44772 13.5523 8 13 8H10V5C10 4.44772 9.55228 4 9 4H6V16H11V18H4V2H9Z" fill="var(--fill-0, #030306)" fill-opacity="0.88"/>
</g>
</g>
</svg>
