<svg preserveAspectRatio="none" width="100%" height="100%" overflow="visible" style="display: block;" viewBox="0 0 20 20" fill="none" xmlns="http://www.w3.org/2000/svg">
<g id="payments-in-progress-sign-box">
<g id="logo">
<path d="M8.43945 2.15297C10.2546 1.79199 12.1393 2.07162 13.7715 2.94399C15.4036 3.81639 16.6823 5.22843 17.3906 6.93813C18.0989 8.64798 18.1924 10.5509 17.6553 12.3219C17.118 14.093 15.9831 15.6228 14.4443 16.651C12.9054 17.6793 11.0577 18.143 9.21582 17.9616C7.4089 17.7836 5.71813 16.9955 4.41895 15.7301L3.69727 16.402C3.56244 16.5273 3.3695 16.5678 3.19531 16.5084C3.02094 16.4486 2.89288 16.2978 2.86328 16.1159L2.28516 12.5573C2.25837 12.3923 2.31604 12.2238 2.43848 12.11C2.56086 11.9964 2.73209 11.9512 2.89453 11.9899L6.40234 12.8258C6.58151 12.8686 6.72255 13.0071 6.76953 13.1852C6.81623 13.3633 6.76174 13.5529 6.62695 13.6784L5.88672 14.3659C6.85118 15.2746 8.09002 15.8401 9.41211 15.9704C10.7933 16.1063 12.179 15.7599 13.333 14.9889C14.487 14.2178 15.3382 13.0699 15.7412 11.7418C16.144 10.4136 16.0741 8.9861 15.543 7.70375C15.0117 6.42142 14.0523 5.36197 12.8281 4.70766C11.604 4.05353 10.1903 3.84413 8.8291 4.11488C7.46801 4.3857 6.24282 5.12036 5.3623 6.19301C4.48176 7.26596 4.00008 8.61164 4 9.99965H2C2.00008 8.14902 2.64145 6.35505 3.81543 4.92445C4.98958 3.49385 6.62426 2.51403 8.43945 2.15297Z" fill="var(--fill-0, #030306)" fill-opacity="0.88"/>
<path d="M11 9.58559L12.707 11.2926L11.293 12.7067L9 10.4137V5.99965H11V9.58559Z" fill="var(--fill-0, #030306)" fill-opacity="0.88"/>
</g>
</g>
</svg>
