<svg preserveAspectRatio="none" width="100%" height="100%" overflow="visible" style="display: block;" viewBox="0 0 20 20" fill="none" xmlns="http://www.w3.org/2000/svg">
<g id="procurement-sign-box">
<g id="logo">
<path d="M10.3994 2.53196C11.9859 1.47455 14.0981 1.68381 15.4463 3.03196L16.207 3.7927C16.4447 4.03038 16.5471 4.37164 16.4795 4.70091C16.4119 5.03013 16.1832 5.30362 15.8711 5.42845C14.8298 5.84496 14.2368 6.13759 13.8184 6.447C13.7219 6.5183 13.6314 6.59152 13.5459 6.67161L19 5.83372V6.99973C19 9.15308 18.4608 10.8465 17.2451 11.9812C16.3745 12.7938 15.2556 13.2245 13.9951 13.4011L15.4688 16.7165L14.6143 17.1443L14.4727 17.2146C11.6574 18.6222 8.34358 18.6222 5.52832 17.2146L5.38672 17.1443L4.53223 16.7165L6.00391 13.4021C4.74639 13.2284 3.62794 12.804 2.75684 11.9949C1.53831 10.8629 1 9.16739 1 6.99973V5.83372L6.4541 6.67259C6.36845 6.59232 6.27824 6.51844 6.18164 6.447C5.76321 6.13759 5.17016 5.84496 4.12891 5.42845C3.81685 5.30362 3.58812 5.03013 3.52051 4.70091C3.45293 4.37164 3.55529 4.03038 3.79297 3.7927L4.55371 3.03196C5.90188 1.68381 8.01414 1.47455 9.60059 2.53196L10 2.79759L10.3994 2.53196ZM8.49121 4.19602C7.81316 3.74417 6.94356 3.75547 6.28418 4.18919C6.69395 4.39294 7.05252 4.60303 7.37109 4.8386C8.04362 5.33593 8.48925 5.90819 8.91406 6.64622C9.56794 7.78222 8.55592 9.02023 7.39258 8.84153L3.07227 8.17649C3.22617 9.33281 3.61476 10.0624 4.11816 10.53C4.78927 11.1532 5.86365 11.4997 7.5 11.4997H9.03906L7.15234 15.7429C8.98614 16.442 11.0128 16.4425 12.8467 15.7439L10.9609 11.4997H12.5C14.1316 11.4997 15.207 11.1464 15.8799 10.5183C16.384 10.0477 16.7711 9.31914 16.9258 8.17649L12.6074 8.84153C11.4441 9.02023 10.4321 7.78222 11.0859 6.64622C11.5108 5.90819 11.9564 5.33593 12.6289 4.8386C12.9473 4.60318 13.3054 4.39282 13.7148 4.18919C13.0555 3.75591 12.1866 3.74433 11.5088 4.19602L10 5.20188L8.49121 4.19602Z" fill="var(--fill-0, #030306)" fill-opacity="0.88"/>
</g>
</g>
</svg>
