<svg preserveAspectRatio="none" width="100%" height="100%" overflow="visible" style="display: block;" viewBox="0 0 20 20" fill="none" xmlns="http://www.w3.org/2000/svg">
<g id="bonuses-sign-box">
<path id="logo" d="M10 2C14.4183 2 18 5.58172 18 10C18 14.4183 14.4183 18 10 18C5.58172 18 2 14.4183 2 10C2 5.58172 5.58172 2 10 2ZM10 4.5C6.96243 4.5 4.5 6.96243 4.5 10C4.5 13.0376 6.96243 15.5 10 15.5C13.0376 15.5 15.5 13.0376 15.5 10C15.5 6.96243 13.0376 4.5 10 4.5ZM10.0322 5.44922C10.4954 5.44922 10.8154 5.59285 11.0449 5.84082C11.2659 6.07976 11.3907 6.40403 11.499 6.7334L13.7422 13.5527L13.8066 13.75H11.8291L11.7969 13.6445L11.3252 12.1279H8.54004L8.03027 13.6475L7.99609 13.75H6.11621L6.18555 13.5508L8.53906 6.73047C8.65341 6.39919 8.78614 6.0759 9.0127 5.83789C9.24717 5.59172 9.56944 5.44931 10.0322 5.44922ZM9.09473 10.459H10.7969L9.96875 7.80566L9.09473 10.459Z" fill="var(--fill-0, #897EFF)"/>
</g>
</svg>
