<svg preserveAspectRatio="none" width="100%" height="100%" overflow="visible" style="display: block;" viewBox="0 0 20.0001 20" fill="none" xmlns="http://www.w3.org/2000/svg">
<g id="Fixer">
<path id="PaintMe" d="M19 19H11V17H19V19ZM15 2C16.6569 2 18 3.34315 18 5V10H16V5C16 4.44772 15.5523 4 15 4H5C4.44772 4 4 4.44772 4 5V15C4 15.5523 4.44772 16 5 16H9V18H5C3.34315 18 2 16.6569 2 15V5C2 3.34315 3.34315 2 5 2H15ZM18.7578 13.9658L11.2578 15.9658L10.7422 14.0342L18.2422 12.0342L18.7578 13.9658ZM9 12H6V10H9V12ZM13 8H6V6H13V8Z" fill="var(--fill-0, #030306)" fill-opacity="0.88"/>
</g>
</svg>
