<svg preserveAspectRatio="none" width="100%" height="100%" overflow="visible" style="display: block;" viewBox="0 0 16 16" fill="none" xmlns="http://www.w3.org/2000/svg">
<g id="Fixer">
<path id="PaintMe" d="M9.5 2.18945C10.5804 2.46755 11.543 3.03866 12.2979 3.81348L14 2.75L15.5 5.375L13.7949 6.44043C13.9284 6.93773 14 7.46056 14 8C14 8.53943 13.9284 9.06228 13.7949 9.55957L15.5 10.625L14 13.25L12.2979 12.1865C11.543 12.9613 10.5804 13.5324 9.5 13.8105V15.5H6.5V13.8105C5.41962 13.5325 4.45702 12.9613 3.70215 12.1865L2 13.25L0.5 10.625L2.20508 9.55957C2.07158 9.06226 2 8.53945 2 8C2 7.46057 2.07159 6.93772 2.20508 6.44043L0.5 5.375L2 2.75L3.70215 3.81348C4.45702 3.03867 5.41962 2.46753 6.5 2.18945V0.5H9.5V2.18945ZM8 5.375C6.55025 5.375 5.375 6.55025 5.375 8C5.375 9.44975 6.55025 10.625 8 10.625C9.44972 10.625 10.625 9.44973 10.625 8C10.625 6.55027 9.44972 5.37503 8 5.375Z" fill="var(--fill-0, #030306)" fill-opacity="0.88"/>
</g>
</svg>
