<svg preserveAspectRatio="none" width="100%" height="100%" overflow="visible" style="display: block;" viewBox="0 0 20 20" fill="none" xmlns="http://www.w3.org/2000/svg">
<g id="gear">
<path id="icon" d="M12.4863 2.68359L13.1357 4.63281L15.1504 4.22168L15.8564 4.07715L16.2168 4.70117L17.7168 7.29883L18.0771 7.92285L17.5986 8.46191L16.2344 9.99902L17.5986 11.5381L18.0771 12.0771L17.7168 12.7012L16.2168 15.2988L15.8564 15.9229L15.1494 15.7783L13.1357 15.3652L12.4863 17.3164L12.2588 18H7.81738L7.58984 17.3164L6.93945 15.3652L4.92676 15.7783L4.2207 15.9229L3.86035 15.2988L2.36035 12.7012L2 12.0771L2.47852 11.5381L3.8418 9.99902L2.47852 8.46191L2 7.92285L2.36035 7.29883L3.86035 4.70117L4.2207 4.07715L4.92676 4.22168L6.93945 4.63281L7.58984 2.68359L7.81738 2H12.2588L12.4863 2.68359ZM8.62109 5.91113L8.49609 6.28711L8.14648 6.47559C8.07401 6.51462 8.00281 6.55566 7.93359 6.59863L7.5957 6.80859L7.20605 6.72852L5.23242 6.32422L4.45215 7.6748L5.79199 9.18555L6.05566 9.48242L6.04395 9.87793C6.04173 9.9523 6.04004 9.96906 6.04004 10C6.04004 10.0308 6.04172 10.0458 6.04395 10.1211L6.05566 10.5166L5.79199 10.8135L4.45215 12.3242L5.23145 13.6738L7.20605 13.2705L7.5957 13.1904L7.93359 13.4004L8.14746 13.5234L8.49609 13.7119L8.62109 14.0879L9.25879 16H10.8174L11.4541 14.0898L11.5791 13.7129L11.9287 13.5254C12 13.4871 12.0721 13.4454 12.1445 13.4004L12.4824 13.1904L12.873 13.2705L14.8447 13.6738L15.624 12.3242L14.2871 10.8164L14.0234 10.5195L14.0352 10.123C14.0382 10.0207 14.04 10.0358 14.04 10C14.04 9.96453 14.0382 9.97702 14.0352 9.87598L14.0234 9.47949L14.2871 9.18262L15.624 7.6748L14.8438 6.32422L12.8721 6.72852L12.4824 6.80859L12.1445 6.59863C12.0719 6.55359 11.9998 6.51181 11.9287 6.47363L11.5791 6.28613L11.4541 5.90918L10.8174 4H9.25879L8.62109 5.91113ZM10.04 8.5C10.8685 8.5 11.54 9.17157 11.54 10C11.54 10.8284 10.8685 11.5 10.04 11.5C9.21161 11.5 8.54004 10.8284 8.54004 10C8.54004 9.17157 9.21161 8.5 10.04 8.5Z" fill="var(--fill-0, #030306)" fill-opacity="0.88"/>
</g>
</svg>
