<svg preserveAspectRatio="none" width="100%" height="100%" overflow="visible" style="display: block;" viewBox="0 0 28 28" fill="none" xmlns="http://www.w3.org/2000/svg">
<g id="eye">
<path id="Union" d="M14.0004 8C17.0482 8.00013 19.0567 9.43144 20.2768 10.8477C20.8807 11.5487 21.2942 12.2464 21.5571 12.7695C21.689 13.0321 21.7851 13.2541 21.8491 13.4141C21.881 13.4939 21.9054 13.5593 21.9223 13.6064C21.9306 13.6296 21.9369 13.6487 21.9418 13.6631C21.9443 13.6703 21.9471 13.6768 21.9487 13.6816C21.9494 13.684 21.95 13.6867 21.9506 13.6885L21.9516 13.6904V13.6914C21.9516 13.6919 21.9402 13.6964 21.0004 14C21.9402 14.3036 21.9516 14.3081 21.9516 14.3086V14.3096L21.9506 14.3115C21.95 14.3133 21.9494 14.316 21.9487 14.3184C21.9471 14.3232 21.9443 14.3297 21.9418 14.3369C21.9369 14.3513 21.9306 14.3704 21.9223 14.3936C21.9054 14.4407 21.881 14.5061 21.8491 14.5859C21.7851 14.7459 21.689 14.9679 21.5571 15.2305C21.2942 15.7536 20.8807 16.4513 20.2768 17.1523C19.0567 18.5686 17.0482 19.9999 14.0004 20C10.9526 20 8.94426 18.5686 7.72405 17.1523C7.12012 16.4514 6.70672 15.7536 6.44378 15.2305C6.31184 14.9679 6.21577 14.7459 6.15179 14.5859C6.11985 14.5061 6.09548 14.4407 6.07855 14.3936C6.07024 14.3704 6.06391 14.3513 6.05901 14.3369C6.05656 14.3297 6.0538 14.3232 6.05218 14.3184C6.0514 14.316 6.0508 14.3133 6.05023 14.3115L6.04925 14.3096V14.3086C6.05369 14.3066 6.11755 14.2852 7.00042 14C6.11755 13.7148 6.05369 13.6934 6.04925 13.6914V13.6904L6.05023 13.6885C6.0508 13.6867 6.0514 13.684 6.05218 13.6816C6.0538 13.6768 6.05656 13.6703 6.05901 13.6631C6.06391 13.6487 6.07024 13.6296 6.07855 13.6064C6.09548 13.5593 6.11985 13.4939 6.15179 13.4141C6.21577 13.2541 6.31184 13.0321 6.44378 12.7695C6.70672 12.2464 7.12012 11.5486 7.72405 10.8477C8.94426 9.43144 10.9526 8 14.0004 8ZM14.0004 10C11.6641 10 10.1724 11.0688 9.2387 12.1523C8.76596 12.7011 8.43912 13.2537 8.23089 13.668C8.16771 13.7937 8.11661 13.906 8.07562 14C8.11661 14.094 8.16771 14.2063 8.23089 14.332C8.43912 14.7463 8.76596 15.2989 9.2387 15.8477C10.1724 16.9312 11.6641 18 14.0004 18C16.3367 17.9999 17.8285 16.9312 18.7621 15.8477C19.2349 15.2989 19.5618 14.7463 19.77 14.332C19.833 14.2065 19.8833 14.0939 19.9242 14C19.8833 13.9061 19.833 13.7935 19.77 13.668C19.5618 13.2537 19.2349 12.7011 18.7621 12.1523C17.8285 11.0688 16.3367 10.0001 14.0004 10ZM13.9994 12C15.104 12 15.9994 12.8954 15.9994 14C15.9994 15.1046 15.104 16 13.9994 16C12.8951 15.9998 11.9994 15.1044 11.9994 14C11.9994 12.8956 12.8951 12.0002 13.9994 12ZM7.00042 14L6.04925 14.3076C5.98468 14.1077 5.98468 13.8923 6.04925 13.6924L7.00042 14ZM21.9516 13.6924C22.0161 13.8922 22.0161 14.1078 21.9516 14.3076L21.0004 14L21.9516 13.6924Z" fill="var(--fill-0, #030306)" fill-opacity="0.88"/>
</g>
</svg>
