<svg preserveAspectRatio="none" width="100%" height="100%" overflow="visible" style="display: block;" viewBox="0 0 28 28" fill="none" xmlns="http://www.w3.org/2000/svg">
<g id="eye-off-local">
<path id="Union" d="M14 8C17.048 8.00001 19.0562 9.43138 20.2764 10.8477C20.8804 11.5487 21.2937 12.2464 21.5567 12.7695C21.6886 13.0321 21.7847 13.2541 21.8487 13.4141C21.8806 13.494 21.905 13.5593 21.9219 13.6064C21.9302 13.6297 21.9365 13.6487 21.9414 13.6631C21.9439 13.6703 21.9466 13.6768 21.9483 13.6816C21.9491 13.684 21.9496 13.6867 21.9502 13.6885L21.9512 13.6904V13.6914C21.9513 13.6919 21.9477 13.6938 21 14C21.9477 14.3062 21.9513 14.3081 21.9512 14.3086V14.3096L21.9502 14.3115C21.9496 14.3133 21.9491 14.316 21.9483 14.3184C21.9466 14.3232 21.9439 14.3297 21.9414 14.3369C21.9365 14.3513 21.9302 14.3703 21.9219 14.3936C21.905 14.4407 21.8806 14.506 21.8487 14.5859C21.7847 14.7459 21.6886 14.9679 21.5567 15.2305C21.2937 15.7536 20.8804 16.4513 20.2764 17.1523C19.0562 18.5686 17.048 20 14 20C10.9521 20 8.94385 18.5686 7.72366 17.1523C7.11966 16.4513 6.70632 15.7536 6.44338 15.2305C6.31141 14.9679 6.21537 14.7459 6.15139 14.5859C6.11942 14.506 6.09509 14.4407 6.07815 14.3936C6.06982 14.3703 6.06352 14.3513 6.05862 14.3369C6.05614 14.3297 6.0534 14.3232 6.05178 14.3184C6.05099 14.316 6.05042 14.3133 6.04983 14.3115L6.04885 14.3096V14.3086C6.04869 14.3081 6.04845 14.3074 7.00002 14C6.04845 13.6926 6.04869 13.6919 6.04885 13.6914V13.6904L6.04983 13.6885C6.05042 13.6867 6.05099 13.684 6.05178 13.6816C6.0534 13.6768 6.05614 13.6703 6.05862 13.6631C6.06352 13.6487 6.06982 13.6297 6.07815 13.6064C6.09509 13.5593 6.11942 13.494 6.15139 13.4141C6.21537 13.2541 6.31141 13.0321 6.44338 12.7695C6.70632 12.2464 7.11966 11.5487 7.72366 10.8477C8.94385 9.43138 10.9521 8 14 8ZM14 10C11.6635 10 10.172 11.0687 9.2383 12.1523C8.7655 12.7011 8.43872 13.2536 8.23049 13.668C8.16728 13.7937 8.11622 13.906 8.07522 14C8.11622 14.094 8.16728 14.2063 8.23049 14.332C8.43872 14.7464 8.7655 15.2989 9.2383 15.8477C10.172 16.9313 11.6635 18 14 18C16.3365 18 17.8281 16.9313 18.7617 15.8477C19.2345 15.2989 19.5613 14.7464 19.7696 14.332C19.8327 14.2064 19.8829 14.0939 19.9239 14C19.8829 13.9061 19.8327 13.7936 19.7696 13.668C19.5613 13.2536 19.2345 12.7011 18.7617 12.1523C17.8281 11.0687 16.3365 10 14 10ZM7.00002 14L6.04885 14.3076C5.98428 14.1077 5.98428 13.8923 6.04885 13.6924L7.00002 14ZM21.9512 13.6924C22.0158 13.8922 22.0158 14.1078 21.9512 14.3076L21 14L21.9512 13.6924Z" fill="var(--fill-0, #898991)"/>
<g id="Vector 21" filter="url(#filter0_d_0_21)">
<path d="M22 22L6 6" stroke="var(--stroke-0, #898991)" stroke-width="2"/>
</g>
</g>
<defs>
<filter id="filter0_d_0_21" x="5.29289" y="4.04289" width="18.6642" height="18.6642" filterUnits="userSpaceOnUse" color-interpolation-filters="sRGB">
<feFlood flood-opacity="0" result="BackgroundImageFix"/>
<feColorMatrix in="SourceAlpha" type="matrix" values="0 0 0 0 0 0 0 0 0 0 0 0 0 0 0 0 0 0 127 0" result="hardAlpha"/>
<feOffset dx="1.25" dy="-1.25"/>
<feComposite in2="hardAlpha" operator="out"/>
<feColorMatrix type="matrix" values="0 0 0 0 0.882353 0 0 0 0 0.890196 0 0 0 0 0.905882 0 0 0 1 0"/>
<feBlend mode="normal" in2="BackgroundImageFix" result="effect1_dropShadow_0_21"/>
<feBlend mode="normal" in="SourceGraphic" in2="effect1_dropShadow_0_21" result="shape"/>
</filter>
</defs>
</svg>
