<svg preserveAspectRatio="none" width="100%" height="100%" overflow="visible" style="display: block;" viewBox="0 0 52 52" fill="none" xmlns="http://www.w3.org/2000/svg">
<path id="bg" d="M0.845312 13.3421C1.79121 6.73325 6.73325 1.79121 13.3421 0.845312C16.7156 0.362471 20.9349 0 26 0C31.0651 0 35.2844 0.362471 38.6579 0.845312C45.2667 1.79121 50.2088 6.73325 51.1547 13.3421C51.6375 16.7156 52 20.9349 52 26C52 31.0651 51.6375 35.2844 51.1547 38.6579C50.2088 45.2667 45.2667 50.2088 38.6579 51.1547C35.2844 51.6375 31.0651 52 26 52C20.9349 52 16.7156 51.6375 13.3421 51.1547C6.73325 50.2088 1.79121 45.2667 0.845312 38.6579C0.362471 35.2844 0 31.0651 0 26C0 20.9349 0.362471 16.7156 0.845312 13.3421Z" fill="var(--fill-0, #2288FA)"/>
</svg>
