<svg preserveAspectRatio="none" width="100%" height="100%" overflow="visible" style="display: block;" viewBox="0 0 16 16" fill="none" xmlns="http://www.w3.org/2000/svg">
<g id="circle-a-letter">
<path id="Union" d="M8.3291 1.6084C11.7106 1.7799 14.3994 4.57589 14.3994 8L14.3916 8.3291C14.2201 11.7105 11.4239 14.3992 8 14.3994L7.66992 14.3916C4.39765 14.2256 1.77436 11.6014 1.6084 8.3291L1.59961 8C1.59961 4.46538 4.46538 1.59961 8 1.59961L8.3291 1.6084ZM8 3.19922C5.34903 3.19922 3.19922 5.34903 3.19922 8C3.19943 10.6508 5.34916 12.7998 8 12.7998C10.6507 12.7996 12.7996 10.6507 12.7998 8C12.7998 5.34916 10.6508 3.19943 8 3.19922ZM8.02539 4.47949C8.71071 4.47949 8.91146 4.89637 9.08496 5.42383L10.8799 10.8799H9.55176L9.14844 9.58301H6.74512L6.31055 10.8799H5.06152L6.94434 5.42383C7.12694 4.89472 7.34012 4.47964 8.02539 4.47949ZM7.96289 5.90137L7.1084 8.4873H8.80078L7.99414 5.90137H7.96289Z" fill="var(--fill-0, #7A63F1)"/>
</g>
</svg>
