<svg preserveAspectRatio="none" width="100%" height="100%" overflow="visible" style="display: block;" viewBox="0 0 16 16" fill="none" xmlns="http://www.w3.org/2000/svg">
<g id="Fixer">
<path id="PaintMe" d="M7.0293 2C9.80698 2 12.0594 4.25166 12.0596 7.0293C12.0596 8.12532 11.7084 9.13958 11.1133 9.96582L14.667 13.5195L13.5195 14.667L9.96582 11.1133C9.13958 11.7084 8.12531 12.0596 7.0293 12.0596C4.25166 12.0594 2 9.80696 2 7.0293C2.00017 4.25177 4.25177 2.00017 7.0293 2ZM7.0293 3.62207C5.14782 3.62224 3.62224 5.14783 3.62207 7.0293C3.62207 8.91091 5.14772 10.4363 7.0293 10.4365C8.91102 10.4365 10.4365 8.91101 10.4365 7.0293C10.4364 5.14772 8.91092 3.62207 7.0293 3.62207Z" fill="var(--fill-0, #040415)" fill-opacity="0.47"/>
</g>
</svg>
