<svg preserveAspectRatio="none" width="100%" height="100%" overflow="visible" style="display: block;" viewBox="0 0 44 44" fill="none" xmlns="http://www.w3.org/2000/svg">
<g id="Frame 2147237988">
<circle id="Ellipse 415" cx="22" cy="22" r="20" stroke="var(--stroke-0, #0F1937)" stroke-opacity="0.1" stroke-width="4"/>
<path id="Ellipse 416" d="M40.1616 13.624C38.5616 10.1548 36.0014 7.21638 32.784 5.15643C29.5665 3.09647 25.8264 2.00114 22.006 2" stroke="var(--stroke-0, #0CC44D)" stroke-width="4" stroke-linecap="round"/>
<g id="user">
<g id="icon">
<path d="M22 23.2C23.5472 23.2 24.9513 23.6426 25.9797 24.55C27.0204 25.4683 27.6 26.7967 27.6 28.4H26C26 27.2034 25.5795 26.3317 24.9203 25.75C24.2487 25.1574 23.2527 24.8 22 24.8C20.7473 24.8 19.7513 25.1574 19.0797 25.75C18.4205 26.3317 18 27.2034 18 28.4H16.4C16.4 26.7967 16.9796 25.4683 18.0203 24.55C19.0487 23.6426 20.4528 23.2 22 23.2Z" fill="var(--fill-0, #030306)" fill-opacity="0.88"/>
<path d="M22 15.6C23.7673 15.6 25.2 17.0327 25.2 18.8C25.2 20.5673 23.7673 22 22 22C20.2327 22 18.8 20.5673 18.8 18.8C18.8 17.0327 20.2327 15.6 22 15.6ZM22 17.2C21.1163 17.2 20.4 17.9163 20.4 18.8C20.4 19.6837 21.1163 20.4 22 20.4C22.8837 20.4 23.6 19.6837 23.6 18.8C23.6 17.9163 22.8837 17.2 22 17.2Z" fill="var(--fill-0, #030306)" fill-opacity="0.88"/>
</g>
</g>
</g>
</svg>
