<svg preserveAspectRatio="none" width="100%" height="100%" overflow="visible" style="display: block;" viewBox="0 0 52 52" fill="none" xmlns="http://www.w3.org/2000/svg">
<g id="logo" clip-path="url(#clip0_0_6911)">
<mask id="mask0_0_6911" style="mask-type:alpha" maskUnits="userSpaceOnUse" x="0" y="0" width="52" height="52">
<path id="bg" d="M0.845312 13.3421C1.79121 6.73325 6.73325 1.79121 13.3421 0.845312C16.7156 0.362471 20.9349 0 26 0C31.0651 0 35.2844 0.362471 38.6579 0.845312C45.2667 1.79121 50.2088 6.73325 51.1547 13.3421C51.6375 16.7156 52 20.9349 52 26C52 31.0651 51.6375 35.2844 51.1547 38.6579C50.2088 45.2667 45.2667 50.2088 38.6579 51.1547C35.2844 51.6375 31.0651 52 26 52C20.9349 52 16.7156 51.6375 13.3421 51.1547C6.73325 50.2088 1.79121 45.2667 0.845312 38.6579C0.362471 35.2844 0 31.0651 0 26C0 20.9349 0.362471 16.7156 0.845312 13.3421Z" fill="var(--fill-0, #2288FA)"/>
</mask>
<g mask="url(#mask0_0_6911)">
<path id="bg_2" d="M0.845312 13.3421C1.79121 6.73325 6.73325 1.79121 13.3421 0.845312C16.7156 0.362471 20.9349 0 26 0C31.0651 0 35.2844 0.362471 38.6579 0.845312C45.2667 1.79121 50.2088 6.73325 51.1547 13.3421C51.6375 16.7156 52 20.9349 52 26C52 31.0651 51.6375 35.2844 51.1547 38.6579C50.2088 45.2667 45.2667 50.2088 38.6579 51.1547C35.2844 51.6375 31.0651 52 26 52C20.9349 52 16.7156 51.6375 13.3421 51.1547C6.73325 50.2088 1.79121 45.2667 0.845312 38.6579C0.362471 35.2844 0 31.0651 0 26C0 20.9349 0.362471 16.7156 0.845312 13.3421Z" fill="var(--fill-0, #212124)"/>
<g id="alfa-bank-sign-box_m_white">
<path id="logo_2" fill-rule="evenodd" clip-rule="evenodd" d="M26.1116 15.1667C24.5031 15.1667 24.0036 16.1189 23.5749 17.3331L19.155 29.8535H22.0859L23.1064 26.8771H28.7458L29.6919 29.8535H32.8085L28.5965 17.3331C28.1895 16.1228 27.72 15.1667 26.1116 15.1667ZM26.0343 18.4283H25.9602L23.9566 24.3627H27.9266L26.0343 18.4283ZM33.1424 36.8332H18.8578V33.8754H33.1424V36.8332Z" fill="var(--fill-0, white)"/>
</g>
</g>
</g>
<defs>
<clipPath id="clip0_0_6911">
<rect width="52" height="52" fill="white"/>
</clipPath>
</defs>
</svg>
