<svg preserveAspectRatio="none" width="100%" height="100%" overflow="visible" style="display: block;" viewBox="0 0 40 40" fill="none" xmlns="http://www.w3.org/2000/svg">
<path id="Shape" d="M20 0C20.864 2.01792e-08 21.696 0.0135699 22.4961 0.0388048C22.9791 0.0540403 23.2206 0.061658 23.3754 0.0912411C24.3174 0.271262 24.8251 0.795158 24.9753 1.74242C25 1.89808 25 2.26539 25 3C25 9.62742 30.3726 15 37 15C37.7341 15 38.1011 15 38.2566 15.0246C39.2042 15.1747 39.7281 15.6822 39.9082 16.6245C39.9378 16.7791 39.9454 17.0201 39.9608 17.5021C39.9862 18.3027 40 19.1353 40 20C40 23.8962 39.721 27.1423 39.3496 29.7373C38.6219 34.8206 34.8206 38.6219 29.7373 39.3496C27.1423 39.721 23.8962 40 20 40C16.1038 40 12.8577 39.721 10.2627 39.3496C5.17936 38.6219 1.37815 34.8206 0.650391 29.7373C0.278975 27.1423 0 23.8962 0 20C0 16.1038 0.278975 12.8577 0.650391 10.2627C1.37815 5.17936 5.17936 1.37815 10.2627 0.650391C12.8577 0.278975 16.1038 0 20 0Z" fill="var(--fill-0, #3778FB)"/>
</svg>
