<svg preserveAspectRatio="none" width="100%" height="100%" overflow="visible" style="display: block;" viewBox="0 0 20.0001 20" fill="none" xmlns="http://www.w3.org/2000/svg">
<g id="Fixer">
<path id="PaintMe" d="M16 3C17.1046 3 18 3.89543 18 5V11C18 12.1046 17.1046 13 16 13H14V15C14 16.1046 13.1046 17 12 17H4C2.89543 17 2 16.1046 2 15V10C2 8.89543 2.89543 8 4 8H6V4.99902C6 3.89255 6.89733 3 8 3H16ZM4 15H12V13H8C6.89707 13 6 12.1072 6 11.001V10H4V15ZM8 11H16V8H8V11ZM8 6H16V5H8V6Z" fill="var(--fill-0, #030306)" fill-opacity="0.88"/>
</g>
</svg>
