<svg width="24" height="24" viewBox="0 0 24 24" fill="none" xmlns="http://www.w3.org/2000/svg">
<path d="M11.7929 3.29303C13.8401 1.24607 17.1596 1.24608 19.2069 3.29303C21.2541 5.34025 21.2548 8.6597 19.2079 10.7071L12.7069 17.2081C11.488 18.4264 9.51165 18.4266 8.29286 17.2081C7.07409 15.9893 7.07444 14.013 8.29286 12.794L14.7919 6.29303L16.2069 7.70709L9.70692 14.2081C9.26956 14.646 9.2692 15.3563 9.70692 15.794C10.1447 16.2315 10.855 16.2313 11.2929 15.794L17.7938 9.29303C19.0597 8.0267 19.0589 5.97326 17.7929 4.70709C16.5265 3.44109 14.4731 3.44184 13.2069 4.70807L6.7079 11.2071C4.61322 13.3018 4.61319 16.6983 6.7079 18.793C8.80264 20.8875 12.1982 20.8867 14.2929 18.7921L16.0253 17.0606C17.3445 15.7414 19.1342 15.0002 20.9999 15.0001V17.001C19.6646 17.0011 18.3835 17.5305 17.4393 18.4747L15.7069 20.2071C12.8312 23.0824 8.1695 23.0825 5.29383 20.2071C2.4182 17.3314 2.41748 12.6689 5.29286 9.79303L11.7929 3.29303Z" fill="#05081D" fill-opacity="0.38"/>
</svg>
