<svg preserveAspectRatio="none" width="100%" height="100%" overflow="visible" style="display: block;" viewBox="0 0 24 24" fill="none" xmlns="http://www.w3.org/2000/svg">
<g id="Fixer">
<path id="PaintMe" d="M12.0002 2.00018C17.5229 2.00026 22.0002 6.47738 22.0002 12.0002C22.0001 17.5228 17.5228 22.0001 12.0002 22.0002C6.47736 22.0002 2.00025 17.5229 2.00015 12.0002C2.00015 6.47733 6.4773 2.00018 12.0002 2.00018ZM12.0949 6.00018C10.9167 6.00023 10.5513 6.71369 10.2375 7.62322L7.00015 17.0002H9.14664L9.89371 14.7707H14.0246L14.7169 17.0002H17.0002L13.9152 7.62322C13.617 6.71666 13.2728 6.00018 12.0949 6.00018ZM13.4269 12.8879H10.5187L11.9865 8.44354H12.0402L13.4269 12.8879Z" fill="var(--fill-0, #897EFF)"/>
</g>
</svg>
