<svg preserveAspectRatio="none" width="100%" height="100%" overflow="visible" style="display: block;" viewBox="0 0 20 20" fill="none" xmlns="http://www.w3.org/2000/svg">
<g id="accounts-sign-box">
<g id="logo">
<path d="M10 12H6V10H10V12Z" fill="var(--fill-0, #030306)" fill-opacity="0.88"/>
<path d="M13 8H6V6H13V8Z" fill="var(--fill-0, #030306)" fill-opacity="0.88"/>
<path d="M15 2C16.6569 2 18 3.34315 18 5V15C18 16.6569 16.6569 18 15 18H5C3.34315 18 2 16.6569 2 15V5C2 3.34315 3.34315 2 5 2H15ZM5 4C4.44772 4 4 4.44772 4 5V15C4 15.5523 4.44772 16 5 16H15C15.5523 16 16 15.5523 16 15V5C16 4.44772 15.5523 4 15 4H5Z" fill="var(--fill-0, #030306)" fill-opacity="0.88"/>
</g>
</g>
</svg>
