<svg preserveAspectRatio="none" width="100%" height="100%" overflow="visible" style="display: block;" viewBox="0 0 24 24" fill="none" xmlns="http://www.w3.org/2000/svg">
<g id="Border">
<mask id="path-1-inside-1_0_3218" fill="white">
<path d="M12 0C14.3376 0 16.2848 0.167791 17.8418 0.390625C20.892 0.827193 23.1738 3.10796 23.6104 6.1582C23.8331 7.71516 24 9.66247 24 12C24 14.3375 23.8331 16.2849 23.6104 17.8418C23.1738 20.892 20.892 23.1738 17.8418 23.6104C16.2849 23.8331 14.3375 24 12 24C9.66247 24 7.71516 23.8331 6.1582 23.6104C3.10796 23.1738 0.827193 20.892 0.390625 17.8418C0.167791 16.2848 0 14.3376 0 12C0 9.6624 0.167793 7.71518 0.390625 6.1582C0.827193 3.10796 3.10796 0.827193 6.1582 0.390625C7.71518 0.167792 9.6624 0 12 0Z"/>
</mask>
<path d="M17.8418 0.390625L17.9126 -0.104331L17.9126 -0.104331L17.8418 0.390625ZM23.6104 6.1582L24.1053 6.08738L24.1053 6.08736L23.6104 6.1582ZM23.6104 17.8418L24.1053 17.9126L24.1053 17.9126L23.6104 17.8418ZM17.8418 23.6104L17.9126 24.1053L17.9126 24.1053L17.8418 23.6104ZM6.1582 23.6104L6.08736 24.1053L6.08738 24.1053L6.1582 23.6104ZM0.390625 17.8418L-0.104331 17.9126L-0.104331 17.9126L0.390625 17.8418ZM0.390625 6.1582L-0.104331 6.08736L-0.104332 6.08737L0.390625 6.1582ZM6.1582 0.390625L6.08737 -0.104332L6.08736 -0.104331L6.1582 0.390625ZM12 0V-0.5C11.4882 -0.5 10.9948 -0.492039 10.5197 -0.477265L10.5352 0.0224934L10.5508 0.522252C11.0155 0.5078 11.4986 0.5 12 0.5V0ZM7.61203 0.213316L7.56144 -0.284118C7.03716 -0.230792 6.54581 -0.169943 6.08737 -0.104332L6.1582 0.390625L6.22904 0.885582C6.67411 0.821884 7.15197 0.76269 7.66263 0.710749L7.61203 0.213316ZM6.1582 0.390625L6.08736 -0.104331C5.28903 0.00993101 4.53759 0.242846 3.85088 0.578675L4.07055 1.02784L4.29021 1.477C4.88181 1.18768 5.53268 0.985248 6.22904 0.885581L6.1582 0.390625ZM1.02784 4.07055L0.578676 3.85088C0.242846 4.53759 0.00993102 5.28903 -0.104331 6.08736L0.390625 6.1582L0.885581 6.22904C0.985248 5.53268 1.18768 4.88181 1.477 4.29021L1.02784 4.07055ZM0.390625 6.1582L-0.104332 6.08737C-0.169943 6.54581 -0.230791 7.03716 -0.284117 7.56144L0.213316 7.61203L0.71075 7.66263C0.76269 7.15197 0.821884 6.67411 0.885582 6.22904L0.390625 6.1582ZM0.0224935 10.5352L-0.477265 10.5197C-0.492039 10.9948 -0.5 11.4882 -0.5 12H0H0.5C0.5 11.4986 0.5078 11.0155 0.522252 10.5508L0.0224935 10.5352ZM0 12H-0.5C-0.5 12.5118 -0.492039 13.0052 -0.477265 13.4803L0.0224935 13.4648L0.522252 13.4492C0.5078 12.9845 0.5 12.5014 0.5 12H0ZM0.213315 16.388L-0.284118 16.4386C-0.230793 16.9628 -0.169943 17.4542 -0.104331 17.9126L0.390625 17.8418L0.885581 17.771C0.821883 17.3259 0.762689 16.848 0.710749 16.3374L0.213315 16.388ZM0.390625 17.8418L-0.104331 17.9126C0.00993297 18.711 0.242852 19.4625 0.578684 20.1493L1.02786 19.9296L1.47703 19.71C1.18769 19.1183 0.985251 18.4673 0.885581 17.771L0.390625 17.8418ZM4.07045 22.9729L3.85073 23.4221C4.53747 23.758 5.28896 23.991 6.08736 24.1053L6.1582 23.6104L6.22905 23.1154C5.53268 23.0157 4.8818 22.8132 4.29017 22.5238L4.07045 22.9729ZM6.1582 23.6104L6.08738 24.1053C6.54587 24.1709 7.03727 24.2317 7.56156 24.2849L7.61204 23.7874L7.66253 23.29C7.15187 23.2382 6.67404 23.1791 6.22902 23.1154L6.1582 23.6104ZM10.5352 23.9776L10.5198 24.4774C10.9949 24.4921 11.4883 24.5 12 24.5V24V23.5C11.4986 23.5 11.0155 23.4922 10.5507 23.4779L10.5352 23.9776ZM12 24V24.5C12.5117 24.5 13.0051 24.4921 13.4802 24.4774L13.4648 23.9776L13.4493 23.4779C12.9845 23.4922 12.5014 23.5 12 23.5V24ZM16.388 23.7874L16.4384 24.2849C16.9627 24.2317 17.4541 24.1709 17.9126 24.1053L17.8418 23.6104L17.771 23.1154C17.326 23.1791 16.8481 23.2382 16.3375 23.29L16.388 23.7874ZM17.8418 23.6104L17.9126 24.1053C18.711 23.991 19.4626 23.758 20.1494 23.4221L19.9297 22.9729L19.71 22.5238C19.1183 22.8132 18.4673 23.0157 17.771 23.1154L17.8418 23.6104ZM22.9729 19.9297L23.4221 20.1494C23.758 19.4626 23.991 18.711 24.1053 17.9126L23.6104 17.8418L23.1154 17.771C23.0157 18.4673 22.8132 19.1183 22.5238 19.71L22.9729 19.9297ZM23.6104 17.8418L24.1053 17.9126C24.1709 17.4541 24.2317 16.9627 24.2849 16.4384L23.7874 16.388L23.29 16.3375C23.2382 16.8481 23.1791 17.326 23.1154 17.771L23.6104 17.8418ZM23.9776 13.4648L24.4774 13.4802C24.4921 13.0051 24.5 12.5117 24.5 12H24H23.5C23.5 12.5014 23.4922 12.9845 23.4779 13.4493L23.9776 13.4648ZM24 12H24.5C24.5 11.4883 24.4921 10.9949 24.4774 10.5198L23.9776 10.5352L23.4779 10.5507C23.4922 11.0155 23.5 11.4986 23.5 12H24ZM23.7874 7.61204L24.2849 7.56156C24.2317 7.03727 24.1709 6.54587 24.1053 6.08738L23.6104 6.1582L23.1154 6.22902C23.1791 6.67404 23.2382 7.15187 23.29 7.66253L23.7874 7.61204ZM23.6104 6.1582L24.1053 6.08736C23.991 5.28896 23.758 4.53747 23.4221 3.85073L22.9729 4.07045L22.5238 4.29017C22.8132 4.8818 23.0157 5.53268 23.1154 6.22905L23.6104 6.1582ZM19.9296 1.02786L20.1493 0.578685C19.4625 0.242853 18.711 0.00993303 17.9126 -0.104331L17.8418 0.390625L17.771 0.885581C18.4673 0.985251 19.1183 1.18769 19.71 1.47703L19.9296 1.02786ZM17.8418 0.390625L17.9126 -0.104331C17.4542 -0.169943 16.9628 -0.230793 16.4386 -0.284118L16.388 0.213315L16.3374 0.710749C16.848 0.762689 17.3259 0.821883 17.771 0.885581L17.8418 0.390625ZM13.4648 0.0224935L13.4803 -0.477265C13.0052 -0.492039 12.5118 -0.5 12 -0.5V0V0.5C12.5014 0.5 12.9845 0.5078 13.4492 0.522252L13.4648 0.0224935ZM17.8418 0.390625L17.9835 -0.599287L17.9835 -0.599288L17.8418 0.390625ZM23.6104 6.1582L24.6003 6.01656L24.6003 6.01651L23.6104 6.1582ZM23.6104 17.8418L24.6003 17.9835L24.6003 17.9834L23.6104 17.8418ZM17.8418 23.6104L17.9834 24.6003L17.9835 24.6003L17.8418 23.6104ZM6.1582 23.6104L6.01651 24.6003L6.01656 24.6003L6.1582 23.6104ZM0.390625 17.8418L-0.599288 17.9835L-0.599287 17.9835L0.390625 17.8418ZM0.390625 6.1582L-0.599287 6.01652L-0.599288 6.01653L0.390625 6.1582ZM6.1582 0.390625L6.01653 -0.599288L6.01652 -0.599287L6.1582 0.390625ZM12 0V-1C11.483 -1 10.9844 -0.991958 10.5041 -0.977023L10.5352 0.0224934L10.5663 1.02201C11.0259 1.00772 11.5038 1 12 1V0ZM7.61203 0.213316L7.51084 -0.781551C6.97976 -0.727533 6.48165 -0.665856 6.01653 -0.599288L6.1582 0.390625L6.29988 1.38054C6.73827 1.3178 7.20938 1.25943 7.71323 1.20818L7.61203 0.213316ZM6.1582 0.390625L6.01652 -0.599287C5.1672 -0.477728 4.36548 -0.229572 3.63122 0.129511L4.07055 1.02784L4.50987 1.92617C5.05393 1.6601 5.65451 1.47291 6.29989 1.38054L6.1582 0.390625ZM1.02784 4.07055L0.129511 3.63122C-0.229572 4.36548 -0.477728 5.1672 -0.599287 6.01652L0.390625 6.1582L1.38054 6.29989C1.47291 5.65451 1.6601 5.05393 1.92617 4.50987L1.02784 4.07055ZM0.390625 6.1582L-0.599288 6.01653C-0.665856 6.48165 -0.727532 6.97976 -0.781551 7.51084L0.213316 7.61203L1.20818 7.71323C1.25943 7.20938 1.3178 6.73827 1.38054 6.29988L0.390625 6.1582ZM0.0224935 10.5352L-0.977023 10.5042C-0.991958 10.9844 -1 11.483 -1 12H0H1C1 11.5038 1.00772 11.0259 1.02201 10.5663L0.0224935 10.5352ZM0 12H-1C-1 12.517 -0.991958 13.0156 -0.977023 13.4959L0.0224935 13.4648L1.02201 13.4337C1.00772 12.9741 1 12.4962 1 12H0ZM0.213315 16.388L-0.781552 16.4892C-0.727534 17.0202 -0.665857 17.5184 -0.599288 17.9835L0.390625 17.8418L1.38054 17.7001C1.3178 17.2617 1.25943 16.7906 1.20818 16.2868L0.213315 16.388ZM0.390625 17.8418L-0.599287 17.9835C-0.477726 18.8328 -0.229568 19.6346 0.12951 20.3689L1.02786 19.9296L1.92621 19.4903C1.66011 18.9462 1.47291 18.3455 1.38054 17.7001L0.390625 17.8418ZM4.07045 22.9729L3.63101 23.8712C4.3653 24.2304 5.1671 24.4787 6.01651 24.6003L6.1582 23.6104L6.2999 22.6204C5.65454 22.5281 5.05396 22.3408 4.50989 22.0747L4.07045 22.9729ZM6.1582 23.6104L6.01656 24.6003C6.48179 24.6668 6.97996 24.7284 7.51108 24.7823L7.61204 23.7874L7.71301 22.7925C7.20918 22.7414 6.73812 22.6831 6.29984 22.6204L6.1582 23.6104ZM10.5352 23.9776L10.5043 24.9771C10.9845 24.992 11.4831 25 12 25V24V23C11.5037 23 11.0258 22.9923 10.5662 22.9781L10.5352 23.9776ZM12 24V25C12.5169 25 13.0155 24.992 13.4957 24.9771L13.4648 23.9776L13.4338 22.9781C12.9742 22.9923 12.4963 23 12 23V24ZM16.388 23.7874L16.4889 24.7823C17.02 24.7284 17.5182 24.6668 17.9834 24.6003L17.8418 23.6104L17.7002 22.6204C17.2619 22.6831 16.7908 22.7414 16.287 22.7925L16.388 23.7874ZM17.8418 23.6104L17.9835 24.6003C18.8329 24.4787 19.6347 24.2304 20.3691 23.8712L19.9297 22.9729L19.4903 22.0746C18.9461 22.3408 18.3455 22.5281 17.7001 22.6204L17.8418 23.6104ZM22.9729 19.9297L23.8712 20.3691C24.2304 19.6347 24.4787 18.8329 24.6003 17.9835L23.6104 17.8418L22.6204 17.7001C22.5281 18.3455 22.3408 18.9461 22.0746 19.4903L22.9729 19.9297ZM23.6104 17.8418L24.6003 17.9834C24.6668 17.5182 24.7284 17.02 24.7823 16.4889L23.7874 16.388L22.7925 16.287C22.7414 16.7908 22.6831 17.2619 22.6204 17.7002L23.6104 17.8418ZM23.9776 13.4648L24.9771 13.4957C24.992 13.0155 25 12.5169 25 12H24H23C23 12.4963 22.9923 12.9742 22.9781 13.4338L23.9776 13.4648ZM24 12H25C25 11.4831 24.992 10.9845 24.9771 10.5043L23.9776 10.5352L22.9781 10.5662C22.9923 11.0258 23 11.5037 23 12H24ZM23.7874 7.61204L24.7823 7.51108C24.7284 6.97996 24.6668 6.48179 24.6003 6.01656L23.6104 6.1582L22.6204 6.29984C22.6831 6.73812 22.7414 7.20918 22.7925 7.71301L23.7874 7.61204ZM23.6104 6.1582L24.6003 6.01651C24.4787 5.1671 24.2304 4.3653 23.8712 3.63101L22.9729 4.07045L22.0747 4.50989C22.3408 5.05396 22.5281 5.65454 22.6204 6.2999L23.6104 6.1582ZM19.9296 1.02786L20.3689 0.129511C19.6346 -0.229567 18.8328 -0.477726 17.9835 -0.599287L17.8418 0.390625L17.7001 1.38054C18.3455 1.47291 18.9462 1.66011 19.4903 1.92621L19.9296 1.02786ZM17.8418 0.390625L17.9835 -0.599288C17.5184 -0.665857 17.0202 -0.727533 16.4892 -0.781552L16.388 0.213315L16.2868 1.20818C16.7906 1.25943 17.2617 1.3178 17.7001 1.38054L17.8418 0.390625ZM13.4648 0.0224935L13.4959 -0.977023C13.0156 -0.991958 12.517 -1 12 -1V0V1C12.4962 1 12.9741 1.00772 13.4337 1.02201L13.4648 0.0224935Z" fill="var(--stroke-0, #050B2C)" fill-opacity="0.18" mask="url(#path-1-inside-1_0_3218)"/>
</g>
</svg>
