<svg preserveAspectRatio="none" width="100%" height="100%" overflow="visible" style="display: block;" viewBox="0 0 16 16" fill="none" xmlns="http://www.w3.org/2000/svg">
<g id="Fixer">
<path id="PaintMe" d="M6.69922 1.46079C8.2119 1.15991 9.78237 1.39295 11.1426 2.11997C12.5028 2.84702 13.5689 4.0232 14.1592 5.44809C14.7494 6.87304 14.8276 8.45947 14.3799 9.9354C13.9321 11.411 12.9863 12.6861 11.7041 13.5428C10.4218 14.3996 8.88146 14.7857 7.34668 14.6346C6.05939 14.5078 4.84335 14.0076 3.84082 13.2069L3.42383 13.7303C3.34719 13.8261 3.22419 13.8716 3.10352 13.8495C2.98273 13.8272 2.88314 13.7408 2.8457 13.6239L2.11523 11.3338C2.0814 11.2277 2.10333 11.1113 2.17285 11.0243C2.24241 10.9374 2.351 10.8907 2.46191 10.9002L4.85645 11.1063C4.97876 11.1169 5.08532 11.1946 5.13379 11.3075C5.18194 11.4202 5.16436 11.5505 5.08789 11.6463L4.67285 12.1659C5.47487 12.8063 6.44781 13.206 7.47754 13.3075C8.70534 13.4283 9.93706 13.1188 10.9629 12.4334C11.9887 11.748 12.7453 10.7283 13.1035 9.5477C13.4617 8.36704 13.3988 7.09873 12.9268 5.95884C12.4546 4.81905 11.6026 3.8774 10.5146 3.29575C9.42659 2.71418 8.17 2.52783 6.95996 2.76841C5.74982 3.00914 4.65971 3.66228 3.87695 4.61606C3.09433 5.56983 2.66699 6.76608 2.66699 7.99985H1.33301C1.33301 6.45761 1.86837 4.96258 2.84668 3.77036C3.82508 2.57824 5.18666 1.76173 6.69922 1.46079ZM9.66699 8.66684C10.2191 8.66702 10.667 9.11467 10.667 9.66684C10.6669 10.2189 10.2191 10.6667 9.66699 10.6668C9.11477 10.6668 8.66709 10.219 8.66699 9.66684C8.66699 9.11456 9.11471 8.66684 9.66699 8.66684ZM10.4717 6.47153L6.47168 10.4715L5.52832 9.52915L9.52832 5.52915L10.4717 6.47153ZM6.47168 5.47153C7.02381 5.47171 7.47168 5.91936 7.47168 6.47153C7.47163 7.02366 7.02378 7.47136 6.47168 7.47153C5.91945 7.47151 5.47173 7.02376 5.47168 6.47153C5.47168 5.91926 5.91941 5.47155 6.47168 5.47153Z" fill="var(--fill-0, #040415)" fill-opacity="0.47"/>
</g>
</svg>
