<svg preserveAspectRatio="none" width="100%" height="100%" overflow="visible" style="display: block;" viewBox="0 0 20 20" fill="none" xmlns="http://www.w3.org/2000/svg">
<g id="egrul-egrip-sign-box">
<g id="logo">
<path d="M19 18.999H11V16.999H19V18.999Z" fill="var(--fill-0, #030306)" fill-opacity="0.88"/>
<path d="M10.3994 2.53125C11.9859 1.47384 14.0981 1.6831 15.4463 3.03125L16.207 3.79199C16.4446 4.02967 16.5471 4.37098 16.4795 4.7002C16.4118 5.02932 16.1831 5.30294 15.8711 5.42773C14.8299 5.84423 14.2368 6.13689 13.8184 6.44629C13.722 6.51756 13.6314 6.59084 13.5459 6.6709L19 5.83301V6.99902C19 8.13126 18.8484 9.13547 18.5303 9.99902H16.3086C16.5988 9.55363 16.8191 8.96418 16.9258 8.17578L12.6074 8.84082C11.4442 9.01948 10.4323 7.78145 11.0859 6.64551C11.5107 5.90752 11.9564 5.3352 12.6289 4.83789C12.9473 4.60249 13.3054 4.39209 13.7148 4.18848C13.0555 3.7552 12.1866 3.74362 11.5088 4.19531L10 5.20117L8.49121 4.19531C7.81316 3.74346 6.94356 3.75476 6.28418 4.18848C6.69392 4.39221 7.05254 4.60234 7.37109 4.83789C8.04356 5.3352 8.48927 5.90752 8.91406 6.64551C9.56773 7.78145 8.55584 9.01948 7.39258 8.84082L3.07227 8.17578C3.22619 9.33196 3.61479 10.0617 4.11816 10.5293C4.78928 11.1524 5.86375 11.499 7.5 11.499H9.03906L7.15234 15.7422C7.75197 15.9708 8.37262 16.122 9 16.2012V18.2178C7.80637 18.0978 6.62912 17.7642 5.52832 17.2139L5.38672 17.1436L4.53223 16.7158L6.00391 13.4014C4.74645 13.2277 3.62792 12.8032 2.75684 11.9941C1.53836 10.8622 1.00004 9.16657 1 6.99902V5.83301L6.4541 6.67188C6.36848 6.59164 6.2782 6.5177 6.18164 6.44629C5.76322 6.13689 5.17011 5.84423 4.12891 5.42773C3.81692 5.30294 3.58818 5.02932 3.52051 4.7002C3.45294 4.37098 3.55537 4.02967 3.79297 3.79199L4.55371 3.03125C5.90188 1.6831 8.01414 1.47384 9.60059 2.53125L10 2.79688L10.3994 2.53125Z" fill="var(--fill-0, #030306)" fill-opacity="0.88"/>
<path d="M18.7578 13.9648L11.2578 15.9648L10.7422 14.0332L18.2422 12.0332L18.7578 13.9648Z" fill="var(--fill-0, #030306)" fill-opacity="0.88"/>
</g>
</g>
</svg>
