<svg preserveAspectRatio="none" width="100%" height="100%" overflow="visible" style="display: block;" viewBox="0 0 16 16" fill="none" xmlns="http://www.w3.org/2000/svg">
<g id="Fixer">
<path id="PaintMe" d="M11.333 2C12.8058 2 14 3.19423 14 4.66699V11.333C14 12.8058 12.8058 14 11.333 14H4.66699C3.19423 14 2 12.8058 2 11.333V4.66699C2 3.19423 3.19423 2 4.66699 2H11.333ZM4.66699 3.33301C3.93061 3.33301 3.33301 3.93061 3.33301 4.66699V11.333C3.33301 12.0694 3.93061 12.667 4.66699 12.667H11.333C12.0694 12.667 12.667 12.0694 12.667 11.333V4.66699C12.667 3.93061 12.0694 3.33301 11.333 3.33301H4.66699ZM8.66699 4.66699C9.95551 4.66717 11 5.71144 11 7C11 8.28856 9.95551 9.33283 8.66699 9.33301H8V10H9.33301V10.667H8V11.333H6.66699V10.667H5.66699V10H6.66699V9.33301H5.66699V8H6.66699V4.66699H8.66699ZM8 8H8.66699C9.21913 7.99982 9.66699 7.55218 9.66699 7C9.66699 6.44782 9.21913 6.00018 8.66699 6H8V8Z" fill="var(--fill-0, #040415)" fill-opacity="0.47"/>
</g>
</svg>
