<svg preserveAspectRatio="none" width="100%" height="100%" overflow="visible" style="display: block;" viewBox="0 0 16 16" fill="none" xmlns="http://www.w3.org/2000/svg">
<g id="Fixer">
<path id="PaintMe" d="M14.667 13.9998H1.33301V12.6668H14.667V13.9998ZM11.3154 1.99976C11.524 1.99422 11.7241 2.08689 11.8545 2.24976L14.5205 5.58277L14.667 5.76637V11.3328H2C1.74402 11.3327 1.51054 11.1864 1.39941 10.9558C1.28854 10.7249 1.31946 10.4498 1.47949 10.2498L5.9043 4.71949L7.875 6.36012L10.791 2.27906L10.8398 2.21851C10.9611 2.08492 11.1328 2.00479 11.3154 1.99976ZM8.125 8.30543L6.0957 6.61402L3.3877 9.99976H13.333V6.23414L11.3623 3.77125L8.125 8.30543Z" fill="var(--fill-0, #040415)" fill-opacity="0.47"/>
</g>
</svg>
