<svg preserveAspectRatio="none" width="100%" height="100%" overflow="visible" style="display: block;" viewBox="0 0 20 20" fill="none" xmlns="http://www.w3.org/2000/svg">
<g id="request-certificate-sign-box">
<g id="logo">
<path d="M15.5957 10.5C16.0473 10.5 16.3527 10.6388 16.5713 10.875C16.7843 11.1052 16.9063 11.4195 17.0146 11.749L19.3008 18.7002H17.4297L16.9248 17.0791H14.0674L13.5234 18.7002H11.75L14.1504 11.748C14.2647 11.4169 14.3938 11.1026 14.6123 10.873C14.836 10.6381 15.1443 10.5 15.5957 10.5ZM14.5879 15.5098H16.4287L15.5342 12.6426L14.5879 15.5098Z" fill="var(--fill-0, #030306)" fill-opacity="0.88"/>
<path d="M9 2C10.6569 2 12 3.34315 12 5V6H13C14.3059 6 15.4141 6.83532 15.8262 8H10V5C10 4.44772 9.55228 4 9 4H6V16H10V18H4V2H9Z" fill="var(--fill-0, #030306)" fill-opacity="0.88"/>
</g>
</g>
</svg>
