<svg preserveAspectRatio="none" width="100%" height="100%" overflow="visible" style="display: block;" viewBox="0 0 40 40" fill="none" xmlns="http://www.w3.org/2000/svg">
<g id="Logotype XS" filter="url(#filter0_i_0_2593)">
<g clip-path="url(#clip0_0_2593)">
<g id="Mask">
<path d="M0.65024 10.2631C1.37785 5.17942 5.17942 1.37785 10.2631 0.65024C12.8582 0.278824 16.1038 0 20 0C23.8962 0 27.1418 0.278824 29.7369 0.65024C34.8206 1.37785 38.6221 5.17942 39.3498 10.2632C39.7212 12.8582 40 16.1038 40 20C40 23.8962 39.7212 27.1418 39.3498 29.7369C38.6221 34.8206 34.8206 38.6221 29.7369 39.3498C27.1418 39.7212 23.8962 40 20 40C16.1038 40 12.8582 39.7212 10.2631 39.3498C5.17942 38.6221 1.37785 34.8206 0.65024 29.7369C0.278824 27.1418 0 23.8962 0 20C0 16.1038 0.278824 12.8582 0.65024 10.2631Z" fill="var(--fill-0, #FF1418)"/>
<path d="M0.65024 10.2631C1.37785 5.17942 5.17942 1.37785 10.2631 0.65024C12.8582 0.278824 16.1038 0 20 0C23.8962 0 27.1418 0.278824 29.7369 0.65024C34.8206 1.37785 38.6221 5.17942 39.3498 10.2632C39.7212 12.8582 40 16.1038 40 20C40 23.8962 39.7212 27.1418 39.3498 29.7369C38.6221 34.8206 34.8206 38.6221 29.7369 39.3498C27.1418 39.7212 23.8962 40 20 40C16.1038 40 12.8582 39.7212 10.2631 39.3498C5.17942 38.6221 1.37785 34.8206 0.65024 29.7369C0.278824 27.1418 0 23.8962 0 20C0 16.1038 0.278824 12.8582 0.65024 10.2631Z" fill="url(#paint0_linear_0_2593)"/>
</g>
<g id="Magnifier" opacity="0">
<path id="Union" d="M19.1344 17.0773C17.4491 17.0773 16.0828 18.4435 16.0828 20.1288C16.0828 21.8142 17.4491 23.1804 19.1344 23.1804C20.8197 23.1804 22.1859 21.8142 22.1859 20.1288H24.0169C24.0169 21.1462 23.7047 22.0902 23.1723 22.8722L25.8675 25.5674L24.5723 26.8619L21.8778 24.1674C21.0958 24.6996 20.1516 25.0113 19.1344 25.0113C16.4379 25.0113 14.2519 22.8254 14.2519 20.1288C14.2519 17.4323 16.4379 15.2463 19.1344 15.2463V17.0773ZM23.5651 12.4999C23.9762 14.0685 25.2005 15.3033 26.7633 15.7285V16.0372C25.2006 16.4625 23.9762 17.6448 23.5651 19.2134H23.248C22.8369 17.6448 21.6126 16.41 20.0498 15.9848V15.7285C21.6126 15.3033 22.8369 14.0685 23.248 12.4999H23.5651Z" fill="var(--fill-0, white)"/>
</g>
<g id="neural-assistant">
<g id="icon">
<path d="M19.6406 23.3371C18.7076 19.747 15.928 17.1646 12.381 16.1914V15.485C15.928 14.5118 18.7076 11.6862 19.6406 8.09617H20.3594C21.2924 11.6862 24.072 14.5118 27.6191 15.485V16.1914C24.072 17.1646 21.2924 19.747 20.3594 23.3371H19.6406Z" fill="var(--fill-0, white)"/>
<path d="M26.6759 26.1905H13.3297V29.0486H26.6759V26.1905Z" fill="var(--fill-0, white)"/>
</g>
</g>
</g>
</g>
<defs>
<filter id="filter0_i_0_2593" x="0" y="0" width="40" height="40" filterUnits="userSpaceOnUse" color-interpolation-filters="sRGB">
<feFlood flood-opacity="0" result="BackgroundImageFix"/>
<feBlend mode="normal" in="SourceGraphic" in2="BackgroundImageFix" result="shape"/>
<feColorMatrix in="SourceAlpha" type="matrix" values="0 0 0 0 0 0 0 0 0 0 0 0 0 0 0 0 0 0 127 0" result="hardAlpha"/>
<feOffset/>
<feGaussianBlur stdDeviation="3"/>
<feComposite in2="hardAlpha" operator="arithmetic" k2="-1" k3="1"/>
<feColorMatrix type="matrix" values="0 0 0 0 1 0 0 0 0 1 0 0 0 0 1 0 0 0 1 0"/>
<feBlend mode="normal" in2="shape" result="effect1_innerShadow_0_2593"/>
</filter>
<linearGradient id="paint0_linear_0_2593" x1="20" y1="42.6361" x2="20" y2="-1.23786e-06" gradientUnits="userSpaceOnUse">
<stop offset="0.0865385" stop-color="#B1A3FF"/>
<stop offset="1" stop-color="#FF3737" stop-opacity="0"/>
</linearGradient>
<clipPath id="clip0_0_2593">
<path d="M0 20C0 8.95431 8.95431 0 20 0V0C31.0457 0 40 8.95431 40 20V20C40 31.0457 31.0457 40 20 40V40C8.95431 40 0 31.0457 0 20V20Z" fill="white"/>
</clipPath>
</defs>
</svg>
