<svg preserveAspectRatio="none" width="100%" height="100%" overflow="visible" style="display: block;" viewBox="0 0 20.0001 20" fill="none" xmlns="http://www.w3.org/2000/svg">
<g id="Fixer">
<path id="PaintMe" d="M15 3.33301C16.8408 3.33301 18.333 4.82588 18.333 6.66699V13.335C18.333 15.1767 16.8402 16.667 15 16.667H5C3.15905 16.667 1.66699 15.174 1.66699 13.333V6.66699C1.66699 4.82604 3.15905 3.33301 5 3.33301H15ZM3.33301 13.333C3.33301 14.2535 4.07953 15 5 15H15C15.9212 15 16.667 14.2547 16.667 13.335V9.16699H3.33301V13.333ZM15 13.333H10.833V11.667H15V13.333ZM5 5C4.07953 5 3.33301 5.74652 3.33301 6.66699V7.5H16.667V6.66699C16.667 5.74669 15.9206 5 15 5H5Z" fill="var(--fill-0, #212124)"/>
</g>
</svg>
