<svg preserveAspectRatio="none" width="100%" height="100%" overflow="visible" style="display: block;" viewBox="0 0 20 20" fill="none" xmlns="http://www.w3.org/2000/svg">
<g id="list-bulleted">
<g id="icon">
<path d="M3.5 13.5C4.32843 13.5 5 14.1716 5 15C5 15.8284 4.32843 16.5 3.5 16.5C2.67157 16.5 2 15.8284 2 15C2 14.1716 2.67157 13.5 3.5 13.5Z" fill="var(--fill-0, #030306)"/>
<path d="M18 14V16H7V14H18Z" fill="var(--fill-0, #030306)"/>
<path d="M3.5 8.5C4.32843 8.5 5 9.17157 5 10C5 10.8284 4.32843 11.5 3.5 11.5C2.67157 11.5 2 10.8284 2 10C2 9.17157 2.67157 8.5 3.5 8.5Z" fill="var(--fill-0, #030306)"/>
<path d="M18 9V11H7V9H18Z" fill="var(--fill-0, #030306)"/>
<path d="M3.5 3.5C4.32843 3.5 5 4.17157 5 5C5 5.82843 4.32843 6.5 3.5 6.5C2.67157 6.5 2 5.82843 2 5C2 4.17157 2.67157 3.5 3.5 3.5Z" fill="var(--fill-0, #030306)"/>
<path d="M18 4V6H7V4H18Z" fill="var(--fill-0, #030306)"/>
</g>
</g>
</svg>
