<svg preserveAspectRatio="none" width="100%" height="100%" overflow="visible" style="display: block;" viewBox="0 0 28 28" fill="none" xmlns="http://www.w3.org/2000/svg">
<g id="Logotype XS" filter="url(#filter0_i_0_3145)">
<g clip-path="url(#clip0_0_3145)">
<g id="Mask">
<path d="M0.455168 7.1842C0.964497 3.6256 3.6256 0.964497 7.1842 0.455168C9.00072 0.195177 11.2727 0 14 0C16.7273 0 18.9993 0.195177 20.8158 0.455168C24.3744 0.964497 27.0355 3.6256 27.5448 7.18421C27.8048 9.00072 28 11.2727 28 14C28 16.7273 27.8048 18.9993 27.5448 20.8158C27.0355 24.3744 24.3744 27.0355 20.8158 27.5448C18.9993 27.8048 16.7273 28 14 28C11.2727 28 9.00072 27.8048 7.1842 27.5448C3.6256 27.0355 0.964497 24.3744 0.455168 20.8158C0.195177 18.9993 0 16.7273 0 14C0 11.2727 0.195177 9.00072 0.455168 7.1842Z" fill="var(--fill-0, #FF1418)"/>
<path d="M0.455168 7.1842C0.964497 3.6256 3.6256 0.964497 7.1842 0.455168C9.00072 0.195177 11.2727 0 14 0C16.7273 0 18.9993 0.195177 20.8158 0.455168C24.3744 0.964497 27.0355 3.6256 27.5448 7.18421C27.8048 9.00072 28 11.2727 28 14C28 16.7273 27.8048 18.9993 27.5448 20.8158C27.0355 24.3744 24.3744 27.0355 20.8158 27.5448C18.9993 27.8048 16.7273 28 14 28C11.2727 28 9.00072 27.8048 7.1842 27.5448C3.6256 27.0355 0.964497 24.3744 0.455168 20.8158C0.195177 18.9993 0 16.7273 0 14C0 11.2727 0.195177 9.00072 0.455168 7.1842Z" fill="url(#paint0_linear_0_3145)"/>
</g>
<g id="Magnifier" opacity="0">
<path id="Union" d="M12.7941 11.9541C11.6143 11.9541 10.658 12.9105 10.658 14.0902C10.658 15.2699 11.6143 16.2263 12.7941 16.2263C13.9738 16.2263 14.9302 15.2699 14.9302 14.0902H16.2118C16.2118 14.8023 15.9933 15.4631 15.6206 16.0106L17.5072 17.8972L16.6006 18.8033L14.7145 16.9172C14.1671 17.2897 13.5061 17.5079 12.7941 17.5079C10.9065 17.5079 9.37633 15.9777 9.37633 14.0902C9.37633 12.2026 10.9065 10.6724 12.7941 10.6724V11.9541ZM15.8956 8.74996C16.1833 9.84796 17.0404 10.7123 18.1343 11.01V11.2261C17.0404 11.5237 16.1833 12.3514 15.8956 13.4494H15.6736C15.3858 12.3514 14.5288 11.487 13.4349 11.1894V11.01C14.5288 10.7123 15.3858 9.84796 15.6736 8.74996H15.8956Z" fill="var(--fill-0, white)"/>
</g>
<g id="neural-assistant">
<g id="icon">
<path d="M13.7484 16.3359C13.0953 13.8229 11.1496 12.0152 8.66667 11.334V10.8395C11.1496 10.1583 13.0953 8.18035 13.7484 5.66732H14.2516C14.9047 8.18035 16.8504 10.1583 19.3333 10.8395V11.334C16.8504 12.0152 14.9047 13.8229 14.2516 16.3359H13.7484Z" fill="var(--fill-0, white)"/>
<path d="M18.6731 18.3333H9.33076V20.334H18.6731V18.3333Z" fill="var(--fill-0, white)"/>
</g>
</g>
</g>
</g>
<defs>
<filter id="filter0_i_0_3145" x="0" y="0" width="28" height="28" filterUnits="userSpaceOnUse" color-interpolation-filters="sRGB">
<feFlood flood-opacity="0" result="BackgroundImageFix"/>
<feBlend mode="normal" in="SourceGraphic" in2="BackgroundImageFix" result="shape"/>
<feColorMatrix in="SourceAlpha" type="matrix" values="0 0 0 0 0 0 0 0 0 0 0 0 0 0 0 0 0 0 127 0" result="hardAlpha"/>
<feOffset/>
<feGaussianBlur stdDeviation="2.1"/>
<feComposite in2="hardAlpha" operator="arithmetic" k2="-1" k3="1"/>
<feColorMatrix type="matrix" values="0 0 0 0 1 0 0 0 0 1 0 0 0 0 1 0 0 0 1 0"/>
<feBlend mode="normal" in2="shape" result="effect1_innerShadow_0_3145"/>
</filter>
<linearGradient id="paint0_linear_0_3145" x1="14" y1="29.8453" x2="14" y2="-8.66502e-07" gradientUnits="userSpaceOnUse">
<stop offset="0.0865385" stop-color="#B1A3FF"/>
<stop offset="1" stop-color="#FF3737" stop-opacity="0"/>
</linearGradient>
<clipPath id="clip0_0_3145">
<path d="M0 14C0 6.26801 6.26801 0 14 0V0C21.732 0 28 6.26801 28 14V14C28 21.732 21.732 28 14 28V28C6.26801 28 0 21.732 0 14V14Z" fill="white"/>
</clipPath>
</defs>
</svg>
