<svg preserveAspectRatio="none" width="100%" height="100%" overflow="visible" style="display: block;" viewBox="0 0 19.2 19.2257" fill="none" xmlns="http://www.w3.org/2000/svg">
<g id="Magnifier">
<path id="Vector" d="M16.8255 17.5287L12.4969 13.2L10.7998 14.8971L15.1285 19.2257L16.8255 17.5287Z" fill="var(--fill-0, #686973)"/>
<path id="Ellipse 9013" d="M13.2 10.4C13.2 13.2719 10.8719 15.6 8 15.6C5.12812 15.6 2.8 13.2719 2.8 10.4C2.8 7.52812 5.12812 5.2 8 5.2" stroke="var(--stroke-0, #686973)" stroke-width="2.4"/>
<path id="Vector_2" d="M12.9925 9.2C12.4536 7.14389 10.8484 5.52559 8.8 4.96822V4.63178C10.8484 4.07441 12.4536 2.45611 12.9925 0.4H13.4075C13.9464 2.45611 15.5516 4.07441 17.6 4.63178V5.03636C15.5516 5.59373 13.9464 7.14389 13.4075 9.2H12.9925Z" fill="var(--fill-0, #686973)"/>
</g>
</svg>
