<svg preserveAspectRatio="none" width="100%" height="100%" overflow="visible" style="display: block;" viewBox="0 0 40 40" fill="none" xmlns="http://www.w3.org/2000/svg">
<path id="Shape" d="M20 0C23.8962 9.09972e-08 27.1423 0.278975 29.7373 0.650391C34.8206 1.37815 38.6219 5.17936 39.3496 10.2627C39.721 12.8577 40 16.1038 40 20C40 23.8962 39.721 27.1423 39.3496 29.7373C38.6219 34.8206 34.8206 38.6219 29.7373 39.3496C27.1423 39.721 23.8962 40 20 40C16.1038 40 12.8577 39.721 10.2627 39.3496C5.17936 38.6219 1.37815 34.8206 0.650391 29.7373C0.278975 27.1423 0 23.8962 0 20C0 16.1038 0.278975 12.8577 0.650391 10.2627C1.37815 5.17936 5.17936 1.37815 10.2627 0.650391C12.8577 0.278975 16.1038 0 20 0Z" fill="var(--fill-0, #3778FB)"/>
</svg>
