<svg preserveAspectRatio="none" width="100%" height="100%" overflow="visible" style="display: block;" viewBox="0 0 24 24" fill="none" xmlns="http://www.w3.org/2000/svg">
<g id="Fixer">
<path id="PaintMe" d="M10.5 2.99999C14.6421 3.00001 18 6.35787 18 10.5C18 12.2105 17.4259 13.7861 16.4619 15.0478L20.7071 19.293L19.293 20.707L15.0479 16.4619C13.7861 17.4259 12.2105 18 10.5 18C6.35789 18 3.00003 14.6421 3.00003 10.5C3.00003 6.35786 6.35789 2.99999 10.5 2.99999ZM10.5 4.99999C7.46246 4.99999 5.00003 7.46243 5.00003 10.5C5.00003 13.5376 7.46246 16 10.5 16C13.5376 16 16 13.5376 16 10.5C16 7.46244 13.5376 5.00001 10.5 4.99999Z" fill="var(--fill-0, #040415)" fill-opacity="0.47"/>
</g>
</svg>
