<svg preserveAspectRatio="none" width="100%" height="100%" overflow="visible" style="display: block;" viewBox="0 0 24 24" fill="none" xmlns="http://www.w3.org/2000/svg">
<g id="Fixer">
<path id="PaintMe" d="M14.33 2.25705C14.6612 1.95897 15.1501 1.916 15.5282 2.15158C15.9063 2.38767 16.0831 2.84599 15.9608 3.27463L14.2235 9.35471L19.3153 11.052C19.6528 11.1646 19.9048 11.4478 19.9774 11.7961C20.05 12.1445 19.9324 12.5053 19.6679 12.7434L9.66787 21.7434C9.33655 22.0412 8.84761 22.0846 8.46963 21.8489C8.0919 21.6128 7.91499 21.1542 8.03701 20.7258L9.77334 14.6447L4.68252 12.9485C4.34536 12.8357 4.09306 12.5524 4.02041 12.2043C3.94785 11.8561 4.06582 11.4952 4.32998 11.2571L14.33 2.25705ZM6.94326 11.594L11.3153 13.052C11.8229 13.2213 12.1076 13.7601 11.9608 14.2746L10.9159 17.9289L17.0536 12.4055L12.6825 10.9485C12.1754 10.7789 11.8905 10.2401 12.037 9.7258L13.081 6.07053L6.94326 11.594Z" fill="var(--fill-0, #040415)" fill-opacity="0.47"/>
</g>
</svg>
