<svg preserveAspectRatio="none" width="100%" height="100%" overflow="visible" style="display: block;" viewBox="0 0 24 24" fill="none" xmlns="http://www.w3.org/2000/svg">
<g id="Fixer">
<path id="PaintMe" d="M18.2061 3.00488C20.3195 3.11212 22 4.85997 22 6.99999V15C22 16.8638 20.7252 18.43 19 18.874V21H17V19H7.00003V21H5.00003V18.874C3.27479 18.43 2.00003 16.8638 2.00003 15V6.99999C2.00003 4.79086 3.79089 2.99999 6.00003 2.99999H18L18.2061 3.00488ZM6.00003 4.99999C4.89546 4.99999 4.00003 5.89543 4.00003 6.99999V15C4.00003 16.1046 4.89546 17 6.00003 17H18C19.1046 17 20 16.1046 20 15V6.99999C20 5.96435 19.2128 5.11301 18.2041 5.01074L18 4.99999H6.00003ZM14 6.99999C16.2092 7.00001 18 8.79087 18 11C18 13.2091 16.2092 15 14 15C11.7909 15 10 13.2091 10 11C10 8.79086 11.7909 6.99999 14 6.99999ZM8.00003 14H6.00003V7.99999H8.00003V14ZM14 8.99999C12.8955 8.99999 12 9.89543 12 11C12 12.1046 12.8955 13 14 13C15.1046 13 16 12.1046 16 11C16 9.89544 15.1046 9.00001 14 8.99999Z" fill="var(--fill-0, #040415)" fill-opacity="0.47"/>
</g>
</svg>
