<svg preserveAspectRatio="none" width="100%" height="100%" overflow="visible" style="display: block;" viewBox="0 0 20.0001 20" fill="none" xmlns="http://www.w3.org/2000/svg">
<g id="Fixer">
<path id="PaintMe" d="M8.91406 1.73688C10.9189 1.47353 12.952 1.9488 14.6328 3.07282C16.3134 4.19686 17.5284 5.894 18.0508 7.84723C18.573 9.80038 18.3669 11.8773 17.4717 13.69C16.5761 15.5029 15.0514 16.9294 13.1826 17.7017C11.3138 18.4739 9.2276 18.5401 7.31348 17.8882C6.18755 17.5048 5.16716 16.8868 4.31152 16.0875L3.76465 16.6353C3.65625 16.7435 3.49722 16.7838 3.35059 16.7398C3.20354 16.6953 3.09169 16.5731 3.06152 16.4224L2.47266 13.4761C2.4454 13.3396 2.4875 13.1977 2.58594 13.0992C2.68442 13.0007 2.82633 12.9586 2.96289 12.9859L5.90918 13.5748C6.0597 13.6049 6.18198 13.716 6.22656 13.8629C6.27085 14.0097 6.23045 14.1694 6.12207 14.2779L5.49121 14.9088C6.16702 15.5296 6.96806 16.0105 7.85059 16.3111C9.38193 16.8326 11.0518 16.7785 12.5469 16.1607C14.0414 15.5428 15.2612 14.4026 15.9775 12.9527C16.6938 11.5025 16.8582 9.84045 16.4404 8.2779C16.0225 6.71534 15.0505 5.35778 13.7061 4.45856C12.3615 3.55938 10.7356 3.17956 9.13184 3.3902C7.52803 3.6009 6.05506 4.38811 4.98828 5.60407C3.92184 6.81996 3.33316 8.38227 3.33301 9.99958H1.66699C1.66714 7.97773 2.40207 6.02442 3.73535 4.50446C5.06873 2.9846 6.90945 2.00033 8.91406 1.73688ZM10.833 9.65485L13.0889 11.9107L11.9111 13.0894L9.16699 10.3453V5.83356H10.833V9.65485Z" fill="var(--fill-0, #030306)" fill-opacity="0.88"/>
</g>
</svg>
