<svg preserveAspectRatio="none" width="100%" height="100%" overflow="visible" style="display: block;" viewBox="0 0 24 24" fill="none" xmlns="http://www.w3.org/2000/svg">
<g id="Fixer">
<path id="PaintMe" d="M16 1.99999C18.2092 2.00001 20 3.79087 20 5.99999V18C20 20.2091 18.2092 22 16 22H8.00003C5.79089 22 4.00003 20.2091 4.00003 18V5.99999C4.00003 3.79086 5.79089 1.99999 8.00003 1.99999H16ZM8.00003 3.99999C6.89546 3.99999 6.00003 4.89543 6.00003 5.99999V18C6.00003 19.1046 6.89546 20 8.00003 20H16C17.1046 20 18 19.1046 18 18V5.99999C18 4.89544 17.1046 4.00001 16 3.99999H8.00003ZM9.00003 16C9.5523 16 10 16.4477 10 17C10 17.5523 9.5523 18 9.00003 18C8.44774 18 8.00003 17.5523 8.00003 17C8.00003 16.4477 8.44774 16 9.00003 16ZM12 16C12.5523 16 13 16.4477 13 17C13 17.5523 12.5523 18 12 18C11.4477 18 11 17.5523 11 17C11 16.4477 11.4477 16 12 16ZM15 13C15.5523 13 16 13.4477 16 14V17C16 17.5523 15.5523 18 15 18C14.4477 18 14 17.5523 14 17V14C14 13.4477 14.4477 13 15 13ZM9.00003 13C9.5523 13 10 13.4477 10 14C10 14.5523 9.5523 15 9.00003 15C8.44774 15 8.00003 14.5523 8.00003 14C8.00003 13.4477 8.44774 13 9.00003 13ZM12 13C12.5523 13 13 13.4477 13 14C13 14.5523 12.5523 15 12 15C11.4477 15 11 14.5523 11 14C11 13.4477 11.4477 13 12 13ZM9.00003 9.99999C9.5523 10 10 10.4477 10 11C10 11.5523 9.5523 12 9.00003 12C8.44774 12 8.00003 11.5523 8.00003 11C8.00003 10.4477 8.44774 9.99999 9.00003 9.99999ZM12 9.99999C12.5523 10 13 10.4477 13 11C13 11.5523 12.5523 12 12 12C11.4477 12 11 11.5523 11 11C11 10.4477 11.4477 9.99999 12 9.99999ZM15 9.99999C15.5523 10 16 10.4477 16 11C16 11.5523 15.5523 12 15 12C14.4477 12 14 11.5523 14 11C14 10.4477 14.4477 9.99999 15 9.99999ZM16 7.99999H8.00003V5.99999H16V7.99999Z" fill="var(--fill-0, #040415)" fill-opacity="0.47"/>
</g>
</svg>
