<svg preserveAspectRatio="none" width="100%" height="100%" overflow="visible" style="display: block;" viewBox="0 0 24 24" fill="none" xmlns="http://www.w3.org/2000/svg">
<g id="Fixer">
<path id="PaintMe" d="M11.7925 3.29305C13.8398 1.2461 17.1592 1.24612 19.2065 3.29305C21.2537 5.34026 21.2544 8.65972 19.2075 10.7071L12.7065 17.2081C11.4876 18.4263 9.51124 18.4266 8.29248 17.2081C7.07377 15.9894 7.07418 14.013 8.29248 12.794L14.7915 6.29305L16.2065 7.70711L9.70655 14.2081C9.2693 14.646 9.26888 15.3563 9.70655 15.794C10.1443 16.2315 10.8546 16.2312 11.2925 15.794L17.7935 9.29305C19.0593 8.02671 19.0586 5.97328 17.7925 4.70711C16.5261 3.44113 14.4728 3.44187 13.2065 4.70809L6.70752 11.2071C4.61296 13.3019 4.61288 16.6984 6.70752 18.793C8.80224 20.8875 12.1978 20.8866 14.2925 18.7921L16.0249 17.0606C17.3441 15.7414 19.1339 15.0002 20.9995 15.0001V17.0011C19.6643 17.0012 18.3831 17.5306 17.439 18.4747L15.7065 20.2071C12.8308 23.0823 8.1691 23.0825 5.29346 20.2071C2.41789 17.3315 2.41722 12.6689 5.29248 9.79305L11.7925 3.29305Z" fill="var(--fill-0, #040415)" fill-opacity="0.47"/>
</g>
</svg>
