<svg preserveAspectRatio="none" width="100%" height="100%" overflow="visible" style="display: block;" viewBox="0 0 20.0001 20" fill="none" xmlns="http://www.w3.org/2000/svg">
<g id="Fixer">
<path id="PaintMe" d="M9.99922 2.91698C10.3788 2.917 10.7386 3.08934 10.9758 3.38573L13.593 6.65819L16.3898 4.79394C16.7966 4.52281 17.3245 4.51356 17.7404 4.7705C18.156 5.02756 18.3839 5.50335 18.3234 5.98827L17.0734 15.9883L16.9367 17.084H3.06269L2.92597 15.9883L1.67597 5.98827C1.61553 5.50341 1.8435 5.0276 2.25898 4.7705C2.67489 4.51348 3.20273 4.5228 3.60957 4.79394L6.40547 6.65722L9.02363 3.38573L9.11836 3.28124C9.35102 3.04977 9.66726 2.91719 9.99922 2.91698ZM7.64277 9.11425C7.23771 9.62013 6.51217 9.73342 5.97285 9.37401L4.49433 8.38866L5.26972 14.584H14.7297L15.5041 8.38866L14.0266 9.37401C13.4871 9.73329 12.7616 9.62038 12.3566 9.11425L9.99922 6.16796L7.64277 9.11425Z" fill="var(--fill-0, #040415)" fill-opacity="0.47"/>
</g>
</svg>
