<svg width="40" height="40" viewBox="0 0 40 40" fill="none" xmlns="http://www.w3.org/2000/svg">
<mask id="mask0_939_1389" style="mask-type:alpha" maskUnits="userSpaceOnUse" x="0" y="0" width="40" height="40">
<path d="M20 0C31.0457 0 40 8.95431 40 20C40 31.0457 31.0457 40 20 40C8.95431 40 0 31.0457 0 20C0 8.95431 8.95431 0 20 0Z" fill="#3778FB"/>
</mask>
<g mask="url(#mask0_939_1389)">
<rect width="40" height="40" fill="white" fill-opacity="0.4"/>
<path d="M20 12C24.4183 12 28 15.5817 28 20C28 24.4183 24.4183 28 20 28C15.5817 28 12 24.4183 12 20C12 15.5817 15.5817 12 20 12ZM20 14C16.6863 14 14 16.6863 14 20C14 23.3137 16.6863 26 20 26C23.3137 26 26 23.3137 26 20C26 16.6863 23.3137 14 20 14ZM20.5 19C20.7761 19 21 19.2239 21 19.5V23H21.5V24H18.5V23H19V20H18.5V19H20.5ZM20 15.75C20.6904 15.75 21.25 16.3096 21.25 17C21.25 17.6904 20.6904 18.25 20 18.25C19.3096 18.25 18.75 17.6904 18.75 17C18.75 16.3096 19.3096 15.75 20 15.75Z" fill="#030306" fill-opacity="0.88"/>
</g>
</svg>
