<svg preserveAspectRatio="none" width="100%" height="100%" overflow="visible" style="display: block;" viewBox="0 0 40 40" fill="none" xmlns="http://www.w3.org/2000/svg">
<g id="Logotype L" filter="url(#filter0_i_0_4506)">
<g clip-path="url(#clip0_0_4506)">
<g id="Mask">
<path d="M0.65024 10.2631C1.37785 5.17942 5.17942 1.37785 10.2631 0.65024C12.8582 0.278824 16.1038 0 20 0C23.8962 0 27.1418 0.278824 29.7369 0.65024C34.8206 1.37785 38.6221 5.17942 39.3498 10.2632C39.7212 12.8582 40 16.1038 40 20C40 23.8962 39.7212 27.1418 39.3498 29.7369C38.6221 34.8206 34.8206 38.6221 29.7369 39.3498C27.1418 39.7212 23.8962 40 20 40C16.1038 40 12.8582 39.7212 10.2631 39.3498C5.17942 38.6221 1.37785 34.8206 0.65024 29.7369C0.278824 27.1418 0 23.8962 0 20C0 16.1038 0.278824 12.8582 0.65024 10.2631Z" fill="var(--fill-0, #FF1418)"/>
<path d="M0.65024 10.2631C1.37785 5.17942 5.17942 1.37785 10.2631 0.65024C12.8582 0.278824 16.1038 0 20 0C23.8962 0 27.1418 0.278824 29.7369 0.65024C34.8206 1.37785 38.6221 5.17942 39.3498 10.2632C39.7212 12.8582 40 16.1038 40 20C40 23.8962 39.7212 27.1418 39.3498 29.7369C38.6221 34.8206 34.8206 38.6221 29.7369 39.3498C27.1418 39.7212 23.8962 40 20 40C16.1038 40 12.8582 39.7212 10.2631 39.3498C5.17942 38.6221 1.37785 34.8206 0.65024 29.7369C0.278824 27.1418 0 23.8962 0 20C0 16.1038 0.278824 12.8582 0.65024 10.2631Z" fill="url(#paint0_linear_0_4506)"/>
</g>
<g id="Magnifier" opacity="0">
<path id="Union" d="M18.9075 17.6619C17.5592 17.6619 16.4663 18.7548 16.4663 20.1031C16.4663 21.4514 17.5592 22.5443 18.9075 22.5443C20.2558 22.5443 21.3487 21.4514 21.3487 20.1031H22.8135C22.8135 20.917 22.5637 21.6722 22.1379 22.2978L24.294 24.4539L23.2579 25.4896L21.1022 23.3339C20.4766 23.7597 19.7213 24.0091 18.9075 24.0091C16.7503 24.0091 15.0015 22.2603 15.0015 20.1031C15.0015 17.9459 16.7503 16.1971 18.9075 16.1971V17.6619ZM22.4521 14C22.7809 15.2548 23.7604 16.2427 25.0106 16.5829V16.8298C23.7605 17.17 22.7809 18.1159 22.4521 19.3707H22.1984C21.8695 18.1159 20.8901 17.128 19.6399 16.7879V16.5829C20.8901 16.2427 21.8695 15.2548 22.1984 14H22.4521Z" fill="var(--fill-0, white)"/>
</g>
<g id="neural-assistant">
<g id="icon">
<path d="M19.6227 24.0039C18.6429 20.2344 15.7245 17.5228 12 16.501V15.7592C15.7245 14.7374 18.6429 11.7705 19.6227 8.00098H20.3773C21.3571 11.7705 24.2755 14.7374 28 15.7592V16.501C24.2755 17.5228 21.3571 20.2344 20.3773 24.0039H19.6227Z" fill="var(--fill-0, white)"/>
<path d="M27.0097 27H12.9961V30.001H27.0097V27Z" fill="var(--fill-0, white)"/>
</g>
</g>
</g>
</g>
<defs>
<filter id="filter0_i_0_4506" x="0" y="0" width="40" height="40" filterUnits="userSpaceOnUse" color-interpolation-filters="sRGB">
<feFlood flood-opacity="0" result="BackgroundImageFix"/>
<feBlend mode="normal" in="SourceGraphic" in2="BackgroundImageFix" result="shape"/>
<feColorMatrix in="SourceAlpha" type="matrix" values="0 0 0 0 0 0 0 0 0 0 0 0 0 0 0 0 0 0 127 0" result="hardAlpha"/>
<feOffset/>
<feGaussianBlur stdDeviation="3"/>
<feComposite in2="hardAlpha" operator="arithmetic" k2="-1" k3="1"/>
<feColorMatrix type="matrix" values="0 0 0 0 1 0 0 0 0 1 0 0 0 0 1 0 0 0 1 0"/>
<feBlend mode="normal" in2="shape" result="effect1_innerShadow_0_4506"/>
</filter>
<linearGradient id="paint0_linear_0_4506" x1="20" y1="42.6361" x2="20" y2="-1.23786e-06" gradientUnits="userSpaceOnUse">
<stop offset="0.0865385" stop-color="#B1A3FF"/>
<stop offset="1" stop-color="#FF3737" stop-opacity="0"/>
</linearGradient>
<clipPath id="clip0_0_4506">
<path d="M0 20C0 8.95431 8.95431 0 20 0V0C31.0457 0 40 8.95431 40 20V20C40 31.0457 31.0457 40 20 40V40C8.95431 40 0 31.0457 0 20V20Z" fill="white"/>
</clipPath>
</defs>
</svg>
