<svg preserveAspectRatio="none" width="100%" height="100%" overflow="visible" style="display: block;" viewBox="0 0 20 23" fill="none" xmlns="http://www.w3.org/2000/svg">
<path id="Union" d="M7.80488 7.33037C5.11081 7.33037 2.92683 9.51832 2.92683 12.2173C2.92683 14.9163 5.11081 17.1042 7.80488 17.1042C10.499 17.1042 12.6829 14.9163 12.6829 12.2173H15.6098C15.6098 13.8466 15.1107 15.3583 14.2597 16.6107L18.568 20.9269L16.4977 23L12.1904 18.6848C10.9403 19.5372 9.43101 20.0364 7.80488 20.0364C3.49436 20.0364 0 16.5356 0 12.2173C3.14282e-08 7.89894 3.49436 4.39822 7.80488 4.39822V7.33037ZM14.8876 0C15.5447 2.51197 17.5019 4.48945 20 5.17039V5.66481C17.502 6.34578 15.5447 8.23928 14.8876 10.7512H14.3807C13.7236 8.23924 11.7664 6.26176 9.26829 5.58082V5.17039C11.7664 4.48945 13.7236 2.51197 14.3807 0H14.8876Z" fill="#030306" fill-opacity="0.88"/>
</svg>
