<svg preserveAspectRatio="none" width="100%" height="100%" overflow="visible" style="display: block;" viewBox="0 0 32 21.3333" fill="none" xmlns="http://www.w3.org/2000/svg">
<g id="Group 3">
<path id="Vector" d="M29.6034 1.3113e-06H2.39656C1.07294 1.3113e-06 0 1.09176 0 2.4386V18.8947C0 20.2415 1.07294 21.3333 2.39656 21.3333H29.6034C30.927 21.3333 32 20.2416 32 18.8947V2.4386C32 1.09176 30.9271 1.3113e-06 29.6034 1.3113e-06Z" fill="var(--fill-0, #41479B)"/>
<g id="Group">
<path id="Vector_2" d="M16.2241 2.40132L16.4454 3.06464L17.1446 3.07008C17.2351 3.07076 17.2726 3.18626 17.1998 3.24008L16.6373 3.65545L16.8482 4.32208C16.8755 4.40833 16.7773 4.47983 16.7036 4.42714L16.1348 4.02052L15.566 4.42714C15.4923 4.47977 15.394 4.40839 15.4213 4.32208L15.6322 3.65545L15.0697 3.24008C14.9969 3.18626 15.0344 3.07076 15.125 3.07008L15.8241 3.06464L16.0454 2.40132C16.0739 2.31545 16.1955 2.31545 16.2241 2.40132Z" fill="var(--fill-0, #FFE15A)"/>
<path id="Vector_3" d="M16.2241 16.6427L16.4454 17.306L17.1446 17.3114C17.2351 17.3121 17.2726 17.4276 17.1998 17.4814L16.6373 17.8968L16.8482 18.5634C16.8755 18.6497 16.7773 18.7212 16.7036 18.6685L16.1348 18.2619L15.566 18.6685C15.4923 18.7211 15.394 18.6497 15.4213 18.5634L15.6322 17.8968L15.0697 17.4814C14.9969 17.4276 15.0344 17.3121 15.125 17.3114L15.8241 17.306L16.0454 16.6427C16.0739 16.5567 16.1955 16.5567 16.2241 16.6427Z" fill="var(--fill-0, #FFE15A)"/>
<path id="Vector_4" d="M23.3449 9.52215L23.5662 10.1855L24.2654 10.1909C24.3559 10.1916 24.3934 10.3071 24.3206 10.3609L23.7581 10.7763L23.969 11.4429C23.9963 11.5291 23.8981 11.6006 23.8244 11.548L23.2556 11.1413L22.6868 11.548C22.6131 11.6006 22.5148 11.5292 22.5421 11.4429L22.753 10.7763L22.1905 10.3609C22.1177 10.3071 22.1552 10.1916 22.2458 10.1909L22.9449 10.1855L23.1662 9.52215C23.1948 9.43634 23.3163 9.43634 23.3449 9.52215Z" fill="var(--fill-0, #FFE15A)"/>
<path id="Vector_5" d="M9.10355 9.52215L9.3248 10.1855L10.024 10.1909C10.1145 10.1916 10.152 10.3071 10.0792 10.3609L9.51673 10.7763L9.72761 11.4429C9.75492 11.5291 9.65667 11.6006 9.58298 11.548L9.01417 11.1413L8.44536 11.548C8.37173 11.6006 8.27342 11.5292 8.30073 11.4429L8.51161 10.7763L7.94911 10.3609C7.8763 10.3071 7.9138 10.1916 8.00436 10.1909L8.70355 10.1855L8.9248 9.52215C8.95342 9.43634 9.07499 9.43634 9.10355 9.52215Z" fill="var(--fill-0, #FFE15A)"/>
<path id="Vector_6" d="M10.1725 5.80406L10.3938 6.46737L11.093 6.47281C11.1835 6.4735 11.221 6.589 11.1482 6.64281L10.5857 7.05819L10.7966 7.72481C10.8239 7.81106 10.7257 7.88256 10.652 7.82987L10.0832 7.42325L9.51436 7.82987C9.44074 7.8825 9.34242 7.81112 9.36974 7.72481L9.58061 7.05819L9.01811 6.64281C8.9453 6.589 8.9828 6.4735 9.07336 6.47281L9.77255 6.46737L9.9938 5.80406C10.0224 5.71819 10.1439 5.71819 10.1725 5.80406Z" fill="var(--fill-0, #FFE15A)"/>
<path id="Vector_7" d="M22.506 12.9236L22.7272 13.5869L23.4264 13.5924C23.517 13.593 23.5545 13.7085 23.4817 13.7624L22.9192 14.1777L23.13 14.8444C23.1573 14.9307 23.0591 15.0021 22.9854 14.9494L22.4166 14.5428L21.8478 14.9494C21.7742 15.002 21.6758 14.9307 21.7032 14.8444L21.914 14.1777L21.3515 13.7624C21.2787 13.7085 21.3162 13.593 21.4068 13.5924L22.106 13.5869L22.3272 12.9236C22.3558 12.8378 22.4773 12.8378 22.506 12.9236Z" fill="var(--fill-0, #FFE15A)"/>
<path id="Vector_8" d="M19.8995 3.19759L20.1208 3.8609L20.82 3.86634C20.9105 3.86703 20.948 3.98253 20.8752 4.03634L20.3127 4.45171L20.5236 5.11834C20.5509 5.20459 20.4527 5.27609 20.379 5.2234L19.8102 4.81677L19.2413 5.2234C19.1677 5.27602 19.0693 5.20465 19.0967 5.11834L19.3075 4.45171L18.745 4.03634C18.6722 3.98253 18.7097 3.86703 18.8003 3.86634L19.4995 3.8609L19.7207 3.19759C19.7493 3.11178 19.8708 3.11178 19.8995 3.19759Z" fill="var(--fill-0, #FFE15A)"/>
<path id="Vector_9" d="M12.779 15.5306L13.0002 16.194L13.6994 16.1994C13.79 16.2001 13.8275 16.3156 13.7546 16.3694L13.1921 16.7848L13.403 17.4514C13.4303 17.5376 13.3321 17.6091 13.2584 17.5565L12.6896 17.1498L12.1208 17.5565C12.0471 17.6091 11.9488 17.5377 11.9761 17.4514L12.187 16.7848L11.6245 16.3694C11.5517 16.3156 11.5892 16.2001 11.6798 16.1994L12.379 16.194L12.6002 15.5307C12.6288 15.4447 12.7504 15.4447 12.779 15.5306Z" fill="var(--fill-0, #FFE15A)"/>
<path id="Vector_10" d="M22.3272 5.80406L22.106 6.46737L21.4068 6.47281C21.3162 6.4735 21.2787 6.589 21.3515 6.64281L21.914 7.05819L21.7032 7.72481C21.6758 7.81106 21.7741 7.88256 21.8478 7.82987L22.4166 7.42325L22.9854 7.82987C23.059 7.8825 23.1573 7.81112 23.13 7.72481L22.9192 7.05819L23.4817 6.64281C23.5545 6.589 23.517 6.4735 23.4264 6.47281L22.7272 6.46737L22.506 5.80406C22.4773 5.71819 22.3558 5.71819 22.3272 5.80406Z" fill="var(--fill-0, #FFE15A)"/>
<path id="Vector_11" d="M9.9938 12.9236L9.77255 13.5869L9.07336 13.5924C8.9828 13.593 8.9453 13.7085 9.01811 13.7624L9.58061 14.1777L9.36974 14.8444C9.34242 14.9307 9.44067 15.0021 9.51436 14.9494L10.0832 14.5428L10.652 14.9494C10.7256 15.002 10.8239 14.9307 10.7966 14.8444L10.5857 14.1777L11.1482 13.7624C11.221 13.7085 11.1835 13.593 11.093 13.5924L10.3938 13.5869L10.1725 12.9236C10.1439 12.8378 10.0224 12.8378 9.9938 12.9236Z" fill="var(--fill-0, #FFE15A)"/>
<path id="Vector_12" d="M12.6002 3.19759L12.379 3.8609L11.6798 3.86634C11.5892 3.86703 11.5517 3.98253 11.6245 4.03634L12.187 4.45171L11.9761 5.11834C11.9488 5.20459 12.0471 5.27609 12.1208 5.2234L12.6896 4.81677L13.2584 5.2234C13.332 5.27602 13.4303 5.20465 13.403 5.11834L13.1921 4.45171L13.7546 4.03634C13.8275 3.98253 13.79 3.86703 13.6994 3.86634L13.0002 3.8609L12.779 3.19759C12.7503 3.11178 12.6288 3.11178 12.6002 3.19759Z" fill="var(--fill-0, #FFE15A)"/>
<path id="Vector_13" d="M19.7207 15.5306L19.4995 16.194L18.8003 16.1994C18.7097 16.2001 18.6722 16.3156 18.745 16.3694L19.3075 16.7848L19.0967 17.4514C19.0693 17.5376 19.1676 17.6091 19.2413 17.5565L19.8101 17.1498L20.3789 17.5565C20.4525 17.6091 20.5508 17.5377 20.5235 17.4514L20.3127 16.7848L20.8752 16.3694C20.948 16.3156 20.9105 16.2001 20.8199 16.1994L20.1207 16.194L19.8995 15.5307C19.8708 15.4447 19.7493 15.4447 19.7207 15.5306Z" fill="var(--fill-0, #FFE15A)"/>
</g>
</g>
</svg>
