<svg preserveAspectRatio="none" width="100%" height="100%" overflow="visible" style="display: block;" viewBox="0 0 32 21.3334" fill="none" xmlns="http://www.w3.org/2000/svg">
<g id="Group 4">
<path id="Vector" d="M29.6034 8.26418e-05H2.39656C1.07294 8.26418e-05 0 1.09181 0 2.43862V18.8943C0 20.241 1.07294 21.3328 2.39656 21.3328H29.6034C30.927 21.3328 32 20.2411 32 18.8943V2.43862C32 1.09181 30.9271 8.26418e-05 29.6034 8.26418e-05Z" fill="var(--fill-0, #F5F5F5)"/>
<g id="Group">
<path id="Vector_2" d="M0.131801 1.64108H31.8681C31.5434 0.686077 30.6524 8.26518e-05 29.6034 8.26518e-05H2.39655C1.34755 8.26518e-05 0.456614 0.686077 0.131801 1.64108Z" fill="var(--fill-0, #FF4B55)"/>
<path id="Vector_3" d="M32 6.56407H0V8.205H32V6.56407Z" fill="var(--fill-0, #FF4B55)"/>
<path id="Vector_4" d="M32 3.28116H0V4.92209H32V3.28116Z" fill="var(--fill-0, #FF4B55)"/>
<path id="Vector_5" d="M0 10.9251C0 11.2351 0.247063 11.4865 0.55175 11.4865H32V9.84556H0V10.9251Z" fill="var(--fill-0, #FF4B55)"/>
<path id="Vector_6" d="M32 16.4104H0V18.0514H32V16.4104Z" fill="var(--fill-0, #FF4B55)"/>
<path id="Vector_7" d="M31.8682 19.6924H0.131795C0.456608 20.6474 1.34761 21.3334 2.39655 21.3334H29.6034C30.6524 21.3334 31.5434 20.6474 31.8682 19.6924Z" fill="var(--fill-0, #FF4B55)"/>
<path id="Vector_8" d="M32 13.1287H0V14.7696H32V13.1287Z" fill="var(--fill-0, #FF4B55)"/>
</g>
<path id="Vector_9" d="M0.55175 11.4869H14.3449C14.6496 11.4869 14.8966 11.2355 14.8966 10.9255V0.561414C14.8966 0.251327 14.6496 1.2815e-06 14.3449 1.2815e-06H2.39656C1.07294 6.4876e-05 0 1.09179 0 2.4386V10.9255C0 11.2356 0.247063 11.4869 0.55175 11.4869Z" fill="var(--fill-0, #41479B)"/>
<g id="Group_2">
<path id="Vector_10" d="M1.54927 1.2902L1.67139 1.67351L2.05745 1.67658C2.10745 1.67704 2.12814 1.74376 2.08795 1.77483L1.77739 2.01481L1.89389 2.40001C1.90902 2.44986 1.85471 2.4912 1.81402 2.46071L1.49996 2.22583L1.18589 2.46078C1.14521 2.49126 1.09102 2.44992 1.10602 2.40008L1.22252 2.01488L0.911957 1.77489C0.87177 1.74376 0.892457 1.67704 0.942457 1.67664L1.32852 1.67357L1.45064 1.29027C1.46639 1.24056 1.53339 1.24056 1.54927 1.2902Z" fill="var(--fill-0, #F5F5F5)"/>
<path id="Vector_11" d="M1.54927 3.29457L1.67139 3.67788L2.05745 3.68095C2.10745 3.68141 2.12814 3.74807 2.08795 3.7792L1.77739 4.01926L1.89389 4.40446C1.90902 4.4543 1.85471 4.49564 1.81402 4.46516L1.49996 4.23027L1.18589 4.46523C1.14521 4.49564 1.09102 4.45437 1.10602 4.40453L1.22252 4.01932L0.911957 3.77927C0.87177 3.74813 0.892457 3.68148 0.942457 3.68102L1.32852 3.67795L1.45064 3.29464C1.46639 3.24499 1.53339 3.24499 1.54927 3.29457Z" fill="var(--fill-0, #F5F5F5)"/>
<path id="Vector_12" d="M1.54927 5.29967L1.67139 5.68298L2.05745 5.68605C2.10745 5.68651 2.12814 5.75316 2.08795 5.7843L1.77739 6.02435L1.89389 6.40955C1.90902 6.45939 1.85471 6.50073 1.81402 6.47025L1.49996 6.23536L1.18589 6.47032C1.14521 6.50073 1.09102 6.45953 1.10602 6.40962L1.22252 6.02442L0.911957 5.78436C0.87177 5.75323 0.892457 5.68657 0.942457 5.68612L1.32852 5.68304L1.45064 5.29974C1.46639 5.25003 1.53339 5.25003 1.54927 5.29967Z" fill="var(--fill-0, #F5F5F5)"/>
<path id="Vector_13" d="M1.54927 7.30563L1.67139 7.68893L2.05745 7.69201C2.10745 7.69246 2.12814 7.75918 2.08795 7.79025L1.77739 8.0303L1.89389 8.4155C1.90902 8.46534 1.85471 8.50668 1.81402 8.4762L1.49996 8.24131L1.18589 8.47627C1.14521 8.50668 1.09102 8.46541 1.10602 8.41557L1.22252 8.03037L0.911957 7.79032C0.87177 7.75931 0.892457 7.69253 0.942457 7.69207L1.32852 7.689L1.45064 7.3057C1.46639 7.25599 1.53339 7.25599 1.54927 7.30563Z" fill="var(--fill-0, #F5F5F5)"/>
<path id="Vector_14" d="M1.54927 9.31005L1.67139 9.69336L2.05745 9.69643C2.10745 9.69689 2.12814 9.76354 2.08795 9.79468L1.77739 10.0347L1.89389 10.4199C1.90902 10.4698 1.85471 10.5111 1.81402 10.4806L1.49996 10.2457L1.18589 10.4807C1.14521 10.5111 1.09102 10.4698 1.10602 10.42L1.22252 10.0348L0.911957 9.79474C0.87177 9.76361 0.892457 9.69695 0.942457 9.6965L1.32852 9.69342L1.45064 9.31012C1.46639 9.26047 1.53339 9.26047 1.54927 9.31005Z" fill="var(--fill-0, #F5F5F5)"/>
<path id="Vector_15" d="M3.03637 2.27367L3.15849 2.65698L3.54456 2.66005C3.59456 2.66051 3.61524 2.72723 3.57506 2.7583L3.26449 2.99836L3.38099 3.38356C3.39612 3.4334 3.34181 3.47474 3.30112 3.44426L2.98706 3.2093L2.673 3.44426C2.63231 3.47468 2.57812 3.4334 2.59312 3.38356L2.70962 2.99836L2.39906 2.7583C2.35887 2.72717 2.37956 2.66051 2.42956 2.66005L2.81562 2.65698L2.93774 2.27367C2.95349 2.22409 3.02056 2.22409 3.03637 2.27367Z" fill="var(--fill-0, #F5F5F5)"/>
<path id="Vector_16" d="M3.03637 4.27886L3.15849 4.66216L3.54456 4.66523C3.59456 4.66569 3.61524 4.73241 3.57506 4.76348L3.26449 5.00353L3.38099 5.38873C3.39612 5.43858 3.34181 5.47991 3.30112 5.44943L2.98706 5.21448L2.673 5.44943C2.63231 5.47985 2.57812 5.43864 2.59312 5.38873L2.70962 5.00353L2.39906 4.76348C2.35887 4.73247 2.37956 4.66569 2.42956 4.66523L2.81562 4.66216L2.93774 4.27886C2.95349 4.22921 3.02056 4.22921 3.03637 4.27886Z" fill="var(--fill-0, #F5F5F5)"/>
<path id="Vector_17" d="M3.03637 6.28341L3.15849 6.66671L3.54456 6.66979C3.59456 6.67024 3.61524 6.7369 3.57506 6.76803L3.26449 7.00809L3.38099 7.39329C3.39612 7.44313 3.34181 7.48447 3.30112 7.45399L2.98706 7.21904L2.673 7.45399C2.63231 7.48441 2.57812 7.44313 2.59312 7.39329L2.70962 7.00809L2.39906 6.76803C2.35887 6.7369 2.37956 6.67024 2.42956 6.66979L2.81562 6.66671L2.93774 6.28341C2.95349 6.23376 3.02056 6.23376 3.03637 6.28341Z" fill="var(--fill-0, #F5F5F5)"/>
<path id="Vector_18" d="M3.03637 8.28791L3.15849 8.67121L3.54456 8.67429C3.59456 8.67475 3.61524 8.7414 3.57506 8.77253L3.26449 9.01259L3.38099 9.39779C3.39612 9.44763 3.34181 9.48897 3.30112 9.45849L2.98706 9.22353L2.673 9.45849C2.63231 9.48897 2.57812 9.44763 2.59312 9.39779L2.70962 9.01259L2.39906 8.77253C2.35887 8.7414 2.37956 8.67475 2.42956 8.67429L2.81562 8.67121L2.93774 8.28791C2.95349 8.23833 3.02056 8.23833 3.03637 8.28791Z" fill="var(--fill-0, #F5F5F5)"/>
<path id="Vector_19" d="M4.52347 1.29008L4.6456 1.67338L5.03166 1.67646C5.08166 1.67692 5.10234 1.74363 5.06216 1.7747L4.7516 2.01469L4.86809 2.39989C4.88322 2.44974 4.82891 2.49108 4.78822 2.4606L4.47416 2.22564L4.1601 2.4606C4.11941 2.49108 4.06522 2.44974 4.08022 2.39989L4.19672 2.01469L3.88616 1.7747C3.84597 1.74357 3.86666 1.67685 3.91666 1.67646L4.30272 1.67338L4.42485 1.29008C4.4406 1.24044 4.50766 1.24044 4.52347 1.29008Z" fill="var(--fill-0, #F5F5F5)"/>
<path id="Vector_20" d="M4.52347 3.29574L4.6456 3.67904L5.03166 3.68212C5.08166 3.68258 5.10234 3.74923 5.06216 3.78036L4.7516 4.02042L4.86809 4.40562C4.88322 4.45546 4.82891 4.4968 4.78822 4.46632L4.47416 4.23136L4.1601 4.46632C4.11941 4.49673 4.06522 4.45546 4.08022 4.40562L4.19672 4.02042L3.88616 3.78036C3.84597 3.74923 3.86666 3.68258 3.91666 3.68212L4.30272 3.67904L4.42485 3.29574C4.4406 3.24616 4.50766 3.24616 4.52347 3.29574Z" fill="var(--fill-0, #F5F5F5)"/>
<path id="Vector_21" d="M4.52347 5.30092L4.6456 5.68422L5.03166 5.6873C5.08166 5.68776 5.10234 5.75441 5.06216 5.78555L4.7516 6.0256L4.86809 6.4108C4.88322 6.46064 4.82891 6.50198 4.78822 6.4715L4.47416 6.23655L4.1601 6.4715C4.11941 6.50192 4.06522 6.46071 4.08022 6.4108L4.19672 6.0256L3.88616 5.78555C3.84597 5.75441 3.86666 5.68776 3.91666 5.6873L4.30272 5.68422L4.42485 5.30092C4.4406 5.25128 4.50766 5.25128 4.52347 5.30092Z" fill="var(--fill-0, #F5F5F5)"/>
<path id="Vector_22" d="M4.52347 7.30547L4.6456 7.68878L5.03166 7.69185C5.08166 7.69231 5.10234 7.75903 5.06216 7.7901L4.7516 8.03015L4.86809 8.41536C4.88322 8.4652 4.82891 8.50654 4.78822 8.47606L4.47416 8.2411L4.1601 8.47606C4.11941 8.50647 4.06522 8.4652 4.08022 8.41536L4.19672 8.03015L3.88616 7.7901C3.84597 7.75909 3.86666 7.69231 3.91666 7.69185L4.30272 7.68878L4.42485 7.30547C4.4406 7.25583 4.50766 7.25583 4.52347 7.30547Z" fill="var(--fill-0, #F5F5F5)"/>
<path id="Vector_23" d="M4.52347 9.3099L4.6456 9.6932L5.03166 9.69627C5.08166 9.69673 5.10234 9.76338 5.06216 9.79452L4.7516 10.0346L4.86809 10.4198C4.88322 10.4696 4.82891 10.511 4.78822 10.4805L4.47416 10.2455L4.1601 10.4805C4.11941 10.5109 4.06522 10.4696 4.08022 10.4198L4.19672 10.0346L3.88616 9.79452C3.84597 9.76338 3.86666 9.69673 3.91666 9.69627L4.30272 9.6932L4.42485 9.3099C4.4406 9.26032 4.50766 9.26032 4.52347 9.3099Z" fill="var(--fill-0, #F5F5F5)"/>
<path id="Vector_24" d="M6.01053 2.27367L6.13266 2.65698L6.51872 2.66005C6.56872 2.66051 6.58941 2.72723 6.54922 2.7583L6.23866 2.99836L6.35516 3.38356C6.37028 3.4334 6.31597 3.47474 6.27528 3.44426L5.96122 3.2093L5.64716 3.44426C5.60647 3.47468 5.55228 3.4334 5.56728 3.38356L5.68378 2.99836L5.37322 2.7583C5.33303 2.72717 5.35372 2.66051 5.40372 2.66005L5.78978 2.65698L5.91191 2.27367C5.9276 2.22409 5.99472 2.22409 6.01053 2.27367Z" fill="var(--fill-0, #F5F5F5)"/>
<path id="Vector_25" d="M6.01053 4.27886L6.13266 4.66216L6.51872 4.66523C6.56872 4.66569 6.58941 4.73241 6.54922 4.76348L6.23866 5.00353L6.35516 5.38873C6.37028 5.43858 6.31597 5.47991 6.27528 5.44943L5.96122 5.21448L5.64716 5.44943C5.60647 5.47985 5.55228 5.43864 5.56728 5.38873L5.68378 5.00353L5.37322 4.76348C5.33303 4.73247 5.35372 4.66569 5.40372 4.66523L5.78978 4.66216L5.91191 4.27886C5.9276 4.22921 5.99472 4.22921 6.01053 4.27886Z" fill="var(--fill-0, #F5F5F5)"/>
<path id="Vector_26" d="M6.01053 6.28341L6.13266 6.66671L6.51872 6.66979C6.56872 6.67024 6.58941 6.7369 6.54922 6.76803L6.23866 7.00809L6.35516 7.39329C6.37028 7.44313 6.31597 7.48447 6.27528 7.45399L5.96122 7.21904L5.64716 7.45399C5.60647 7.48441 5.55228 7.44313 5.56728 7.39329L5.68378 7.00809L5.37322 6.76803C5.33303 6.7369 5.35372 6.67024 5.40372 6.66979L5.78978 6.66671L5.91191 6.28341C5.9276 6.23376 5.99472 6.23376 6.01053 6.28341Z" fill="var(--fill-0, #F5F5F5)"/>
<path id="Vector_27" d="M6.01053 8.28791L6.13266 8.67121L6.51872 8.67429C6.56872 8.67475 6.58941 8.7414 6.54922 8.77253L6.23866 9.01259L6.35516 9.39779C6.37028 9.44763 6.31597 9.48897 6.27528 9.45849L5.96122 9.22353L5.64716 9.45849C5.60647 9.48897 5.55228 9.44763 5.56728 9.39779L5.68378 9.01259L5.37322 8.77253C5.33303 8.7414 5.35372 8.67475 5.40372 8.67429L5.78978 8.67121L5.91191 8.28791C5.9276 8.23833 5.99472 8.23833 6.01053 8.28791Z" fill="var(--fill-0, #F5F5F5)"/>
<path id="Vector_28" d="M7.49759 1.29025L7.61972 1.67355L8.00578 1.67662C8.05578 1.67708 8.07647 1.7438 8.03628 1.77487L7.72572 2.01486L7.84222 2.40006C7.85734 2.4499 7.80303 2.49124 7.76234 2.46076L7.44822 2.22587L7.13416 2.46082C7.09347 2.4913 7.03928 2.44996 7.05428 2.40012L7.17078 2.01492L6.86022 1.77493C6.82003 1.7438 6.84072 1.67708 6.89072 1.67669L7.27678 1.67361L7.39891 1.29031C7.41472 1.2406 7.48178 1.2406 7.49759 1.29025Z" fill="var(--fill-0, #F5F5F5)"/>
<path id="Vector_29" d="M7.49758 3.29574L7.6197 3.67904L8.00576 3.68212C8.05576 3.68258 8.07645 3.74923 8.03626 3.78036L7.7257 4.02042L7.8422 4.40562C7.85733 4.45546 7.80301 4.4968 7.76233 4.46632L7.4482 4.23136L7.13414 4.46632C7.09345 4.49673 7.03926 4.45546 7.05426 4.40562L7.17076 4.02042L6.8602 3.78036C6.82001 3.74923 6.8407 3.68258 6.8907 3.68212L7.27676 3.67904L7.39889 3.29574C7.4147 3.24616 7.48176 3.24616 7.49758 3.29574Z" fill="var(--fill-0, #F5F5F5)"/>
<path id="Vector_30" d="M7.49758 5.30068L7.6197 5.68398L8.00576 5.68706C8.05576 5.68752 8.07645 5.75417 8.03626 5.78531L7.7257 6.02536L7.8422 6.41056C7.85733 6.4604 7.80301 6.50174 7.76233 6.47126L7.4482 6.23624L7.13414 6.47119C7.09345 6.50161 7.03926 6.46034 7.05426 6.41049L7.17076 6.02529L6.8602 5.78524C6.82001 5.7541 6.8407 5.68745 6.8907 5.68699L7.27676 5.68392L7.39889 5.30062C7.4147 5.25104 7.48176 5.25104 7.49758 5.30068Z" fill="var(--fill-0, #F5F5F5)"/>
<path id="Vector_31" d="M7.49758 7.30547L7.6197 7.68878L8.00576 7.69185C8.05576 7.69231 8.07645 7.75903 8.03626 7.7901L7.7257 8.03015L7.8422 8.41536C7.85733 8.4652 7.80301 8.50654 7.76233 8.47606L7.4482 8.2411L7.13414 8.47606C7.09345 8.50647 7.03926 8.4652 7.05426 8.41536L7.17076 8.03015L6.8602 7.7901C6.82001 7.75909 6.8407 7.69231 6.8907 7.69185L7.27676 7.68878L7.39889 7.30547C7.4147 7.25583 7.48176 7.25583 7.49758 7.30547Z" fill="var(--fill-0, #F5F5F5)"/>
<path id="Vector_32" d="M7.49758 9.3099L7.6197 9.6932L8.00576 9.69627C8.05576 9.69673 8.07645 9.76338 8.03626 9.79452L7.7257 10.0346L7.8422 10.4198C7.85733 10.4696 7.80301 10.511 7.76233 10.4805L7.4482 10.2455L7.13414 10.4805C7.09345 10.5109 7.03926 10.4696 7.05426 10.4198L7.17076 10.0346L6.8602 9.79452C6.82001 9.76338 6.8407 9.69673 6.8907 9.69627L7.27676 9.6932L7.39889 9.3099C7.4147 9.26032 7.48176 9.26032 7.49758 9.3099Z" fill="var(--fill-0, #F5F5F5)"/>
<path id="Vector_33" d="M8.98457 2.27367L9.10669 2.65698L9.49275 2.66005C9.54275 2.66051 9.56344 2.72723 9.52325 2.7583L9.21269 2.99836L9.32919 3.38356C9.34431 3.4334 9.29 3.47474 9.24931 3.44426L8.93526 3.2093L8.62119 3.44426C8.58051 3.47468 8.52632 3.4334 8.54132 3.38356L8.65782 2.99836L8.34726 2.7583C8.30707 2.72717 8.32776 2.66051 8.37776 2.66005L8.76382 2.65698L8.88594 2.27367C8.90176 2.22409 8.96875 2.22409 8.98457 2.27367Z" fill="var(--fill-0, #F5F5F5)"/>
<path id="Vector_34" d="M8.98457 4.27886L9.10669 4.66216L9.49275 4.66523C9.54275 4.66569 9.56344 4.73241 9.52325 4.76348L9.21269 5.00353L9.32919 5.38873C9.34431 5.43858 9.29 5.47991 9.24931 5.44943L8.93526 5.21448L8.62119 5.44943C8.58051 5.47985 8.52632 5.43864 8.54132 5.38873L8.65782 5.00353L8.34726 4.76348C8.30707 4.73247 8.32776 4.66569 8.37776 4.66523L8.76382 4.66216L8.88594 4.27886C8.90176 4.22921 8.96875 4.22921 8.98457 4.27886Z" fill="var(--fill-0, #F5F5F5)"/>
<path id="Vector_35" d="M8.98457 6.28341L9.10669 6.66671L9.49275 6.66979C9.54275 6.67024 9.56344 6.7369 9.52325 6.76803L9.21269 7.00809L9.32919 7.39329C9.34431 7.44313 9.29 7.48447 9.24931 7.45399L8.93526 7.21904L8.62119 7.45399C8.58051 7.48441 8.52632 7.44313 8.54132 7.39329L8.65782 7.00809L8.34726 6.76803C8.30707 6.7369 8.32776 6.67024 8.37776 6.66979L8.76382 6.66671L8.88594 6.28341C8.90176 6.23376 8.96875 6.23376 8.98457 6.28341Z" fill="var(--fill-0, #F5F5F5)"/>
<path id="Vector_36" d="M8.98457 8.28791L9.10669 8.67121L9.49275 8.67429C9.54275 8.67475 9.56344 8.7414 9.52325 8.77253L9.21269 9.01259L9.32919 9.39779C9.34431 9.44763 9.29 9.48897 9.24931 9.45849L8.93526 9.22353L8.62119 9.45849C8.58051 9.48897 8.52632 9.44763 8.54132 9.39779L8.65782 9.01259L8.34726 8.77253C8.30707 8.7414 8.32776 8.67475 8.37776 8.67429L8.76382 8.67121L8.88594 8.28791C8.90176 8.23833 8.96875 8.23833 8.98457 8.28791Z" fill="var(--fill-0, #F5F5F5)"/>
<path id="Vector_37" d="M10.4718 1.29008L10.5939 1.67338L10.9799 1.67646C11.0299 1.67692 11.0506 1.74363 11.0104 1.7747L10.6999 2.01469L10.8164 2.39989C10.8315 2.44974 10.7772 2.49108 10.7365 2.4606L10.4225 2.22564L10.1084 2.4606C10.0677 2.49108 10.0135 2.44974 10.0285 2.39989L10.145 2.01469L9.83446 1.7747C9.79427 1.74357 9.81496 1.67685 9.86496 1.67646L10.251 1.67338L10.3731 1.29008C10.3888 1.24044 10.456 1.24044 10.4718 1.29008Z" fill="var(--fill-0, #F5F5F5)"/>
<path id="Vector_38" d="M10.4717 3.29574L10.5939 3.67904L10.9799 3.68212C11.0299 3.68258 11.0506 3.74923 11.0104 3.78036L10.6999 4.02042L10.8164 4.40562C10.8315 4.45546 10.7772 4.4968 10.7365 4.46632L10.4224 4.23136L10.1084 4.46632C10.0677 4.49673 10.0135 4.45546 10.0285 4.40562L10.145 4.02042L9.83444 3.78036C9.79426 3.74923 9.81494 3.68258 9.86494 3.68212L10.251 3.67904L10.3731 3.29574C10.3888 3.24616 10.4559 3.24616 10.4717 3.29574Z" fill="var(--fill-0, #F5F5F5)"/>
<path id="Vector_39" d="M10.4717 5.30092L10.5939 5.68422L10.9799 5.6873C11.0299 5.68776 11.0506 5.75441 11.0104 5.78555L10.6999 6.0256L10.8164 6.4108C10.8315 6.46064 10.7772 6.50198 10.7365 6.4715L10.4224 6.23655L10.1084 6.4715C10.0677 6.50192 10.0135 6.46071 10.0285 6.4108L10.145 6.0256L9.83444 5.78555C9.79426 5.75441 9.81494 5.68776 9.86494 5.6873L10.251 5.68422L10.3731 5.30092C10.3888 5.25128 10.4559 5.25128 10.4717 5.30092Z" fill="var(--fill-0, #F5F5F5)"/>
<path id="Vector_40" d="M10.4717 7.30547L10.5939 7.68878L10.9799 7.69185C11.0299 7.69231 11.0506 7.75903 11.0104 7.7901L10.6999 8.03015L10.8164 8.41536C10.8315 8.4652 10.7772 8.50654 10.7365 8.47606L10.4224 8.2411L10.1084 8.47606C10.0677 8.50647 10.0135 8.4652 10.0285 8.41536L10.145 8.03015L9.83444 7.7901C9.79426 7.75909 9.81494 7.69231 9.86494 7.69185L10.251 7.68878L10.3731 7.30547C10.3888 7.25583 10.4559 7.25583 10.4717 7.30547Z" fill="var(--fill-0, #F5F5F5)"/>
<path id="Vector_41" d="M10.4717 9.3099L10.5939 9.6932L10.9799 9.69627C11.0299 9.69673 11.0506 9.76338 11.0104 9.79452L10.6999 10.0346L10.8164 10.4198C10.8315 10.4696 10.7772 10.511 10.7365 10.4805L10.4224 10.2455L10.1084 10.4805C10.0677 10.5109 10.0135 10.4696 10.0285 10.4198L10.145 10.0346L9.83444 9.79452C9.79426 9.76338 9.81494 9.69673 9.86494 9.69627L10.251 9.6932L10.3731 9.3099C10.3888 9.26032 10.4559 9.26032 10.4717 9.3099Z" fill="var(--fill-0, #F5F5F5)"/>
<path id="Vector_42" d="M11.9589 2.27367L12.081 2.65698L12.467 2.66005C12.517 2.66051 12.5377 2.72723 12.4975 2.7583L12.187 2.99836L12.3035 3.38356C12.3186 3.4334 12.2643 3.47474 12.2236 3.44426L11.9095 3.2093L11.5955 3.44426C11.5548 3.47468 11.5006 3.4334 11.5156 3.38356L11.6321 2.99836L11.3215 2.7583C11.2814 2.72717 11.302 2.66051 11.352 2.66005L11.7381 2.65698L11.8602 2.27367C11.876 2.22409 11.943 2.22409 11.9589 2.27367Z" fill="var(--fill-0, #F5F5F5)"/>
<path id="Vector_43" d="M11.9589 4.27886L12.081 4.66216L12.467 4.66523C12.517 4.66569 12.5377 4.73241 12.4975 4.76348L12.187 5.00353L12.3035 5.38873C12.3186 5.43858 12.2643 5.47991 12.2236 5.44943L11.9095 5.21448L11.5955 5.44943C11.5548 5.47985 11.5006 5.43864 11.5156 5.38873L11.6321 5.00353L11.3215 4.76348C11.2814 4.73247 11.302 4.66569 11.352 4.66523L11.7381 4.66216L11.8602 4.27886C11.876 4.22921 11.943 4.22921 11.9589 4.27886Z" fill="var(--fill-0, #F5F5F5)"/>
<path id="Vector_44" d="M11.9589 6.28341L12.081 6.66671L12.467 6.66979C12.517 6.67024 12.5377 6.7369 12.4975 6.76803L12.187 7.00809L12.3035 7.39329C12.3186 7.44313 12.2643 7.48447 12.2236 7.45399L11.9095 7.21904L11.5955 7.45399C11.5548 7.48441 11.5006 7.44313 11.5156 7.39329L11.6321 7.00809L11.3215 6.76803C11.2814 6.7369 11.302 6.67024 11.352 6.66979L11.7381 6.66671L11.8602 6.28341C11.876 6.23376 11.943 6.23376 11.9589 6.28341Z" fill="var(--fill-0, #F5F5F5)"/>
<path id="Vector_45" d="M11.9589 8.28791L12.081 8.67121L12.467 8.67429C12.517 8.67475 12.5377 8.7414 12.4975 8.77253L12.187 9.01259L12.3035 9.39779C12.3186 9.44763 12.2643 9.48897 12.2236 9.45849L11.9095 9.22353L11.5955 9.45849C11.5548 9.48897 11.5006 9.44763 11.5156 9.39779L11.6321 9.01259L11.3215 8.77253C11.2814 8.7414 11.302 8.67475 11.352 8.67429L11.7381 8.67121L11.8602 8.28791C11.876 8.23833 11.943 8.23833 11.9589 8.28791Z" fill="var(--fill-0, #F5F5F5)"/>
<path id="Vector_46" d="M13.4459 1.29008L13.568 1.67338L13.9541 1.67646C14.0041 1.67692 14.0248 1.74363 13.9846 1.7747L13.674 2.01469L13.7905 2.39989C13.8056 2.44974 13.7513 2.49108 13.7106 2.4606L13.3966 2.22564L13.0825 2.4606C13.0418 2.49108 12.9876 2.44974 13.0026 2.39989L13.1191 2.01469L12.8086 1.7747C12.7684 1.74357 12.7891 1.67685 12.8391 1.67646L13.2251 1.67338L13.3473 1.29008C13.363 1.24044 13.43 1.24044 13.4459 1.29008Z" fill="var(--fill-0, #F5F5F5)"/>
<path id="Vector_47" d="M13.4459 3.29574L13.568 3.67904L13.9541 3.68212C14.0041 3.68258 14.0248 3.74923 13.9846 3.78036L13.674 4.02042L13.7905 4.40562C13.8057 4.45546 13.7514 4.4968 13.7107 4.46632L13.3966 4.23136L13.0825 4.46632C13.0419 4.49673 12.9877 4.45546 13.0027 4.40562L13.1192 4.02042L12.8086 3.78036C12.7684 3.74923 12.7891 3.68258 12.8391 3.68212L13.2252 3.67904L13.3473 3.29574C13.363 3.24616 13.43 3.24616 13.4459 3.29574Z" fill="var(--fill-0, #F5F5F5)"/>
<path id="Vector_48" d="M13.4459 5.30092L13.568 5.68422L13.9541 5.6873C14.0041 5.68776 14.0248 5.75441 13.9846 5.78555L13.674 6.0256L13.7905 6.4108C13.8057 6.46064 13.7514 6.50198 13.7107 6.4715L13.3966 6.23655L13.0825 6.4715C13.0419 6.50192 12.9877 6.46071 13.0027 6.4108L13.1192 6.0256L12.8086 5.78555C12.7684 5.75441 12.7891 5.68776 12.8391 5.6873L13.2252 5.68422L13.3473 5.30092C13.363 5.25128 13.43 5.25128 13.4459 5.30092Z" fill="var(--fill-0, #F5F5F5)"/>
<path id="Vector_49" d="M13.4459 7.30547L13.568 7.68878L13.9541 7.69185C14.0041 7.69231 14.0248 7.75903 13.9846 7.7901L13.674 8.03015L13.7905 8.41536C13.8057 8.4652 13.7514 8.50654 13.7107 8.47606L13.3966 8.2411L13.0825 8.47606C13.0419 8.50647 12.9877 8.4652 13.0027 8.41536L13.1192 8.03015L12.8086 7.7901C12.7684 7.75909 12.7891 7.69231 12.8391 7.69185L13.2252 7.68878L13.3473 7.30547C13.363 7.25583 13.43 7.25583 13.4459 7.30547Z" fill="var(--fill-0, #F5F5F5)"/>
<path id="Vector_50" d="M13.4459 9.3099L13.568 9.6932L13.9541 9.69627C14.0041 9.69673 14.0248 9.76338 13.9846 9.79452L13.674 10.0346L13.7905 10.4198C13.8057 10.4696 13.7514 10.511 13.7107 10.4805L13.3966 10.2455L13.0825 10.4805C13.0419 10.5109 12.9877 10.4696 13.0027 10.4198L13.1192 10.0346L12.8086 9.79452C12.7684 9.76338 12.7891 9.69673 12.8391 9.69627L13.2252 9.6932L13.3473 9.3099C13.363 9.26032 13.43 9.26032 13.4459 9.3099Z" fill="var(--fill-0, #F5F5F5)"/>
</g>
</g>
</svg>
