<svg preserveAspectRatio="none" width="100%" height="100%" overflow="visible" style="display: block;" viewBox="0 0 32 21.3333" fill="none" xmlns="http://www.w3.org/2000/svg">
<g id="Group">
<path id="Vector" d="M29.6034 3.57628e-07H2.39656C1.07294 3.57628e-07 0 1.09176 0 2.4386V18.8947C0 20.2415 1.07294 21.3333 2.39656 21.3333H29.6034C30.927 21.3333 32 20.2416 32 18.8947V2.4386C32 1.09176 30.9271 3.57628e-07 29.6034 3.57628e-07Z" fill="var(--fill-0, #FF4B55)"/>
<g id="Group_2">
<path id="Vector_2" d="M5.31296 3.33598L5.83896 4.94076L7.50146 4.95386C7.71671 4.95552 7.80596 5.23508 7.63278 5.36514L6.2954 6.37002L6.79684 7.98295C6.86171 8.1918 6.62809 8.36446 6.45296 8.23714L5.10046 7.25337L3.74796 8.23708C3.57284 8.36446 3.33921 8.19167 3.40409 7.98288L3.90553 6.36996L2.56815 5.36514C2.39496 5.23502 2.48421 4.95552 2.69946 4.95386L4.36196 4.94076L4.88796 3.33598C4.95609 3.12821 5.2449 3.12821 5.31296 3.33598Z" fill="var(--fill-0, #FFE15A)"/>
<path id="Vector_3" d="M11.3499 3.73141L11.7271 4.25468L12.3358 4.06097C12.4146 4.03591 12.4794 4.12736 12.4312 4.19547L12.0586 4.72211L12.4277 5.2513C12.4755 5.31979 12.4101 5.41079 12.3314 5.38517L11.724 5.18732L11.3434 5.70811C11.2942 5.77552 11.1889 5.74029 11.1886 5.65634L11.1858 5.00734L10.5814 4.79995C10.5031 4.77305 10.5035 4.66036 10.5819 4.63403L11.1876 4.43078L11.1947 3.78184C11.1956 3.69809 11.3011 3.66368 11.3499 3.73141Z" fill="var(--fill-0, #FFE15A)"/>
<path id="Vector_4" d="M9.05358 2.1714L9.68758 2.24148L9.95808 1.65379C9.99315 1.57773 10.1032 1.59076 10.12 1.67299L10.2504 2.30819L10.8833 2.38832C10.9652 2.39869 10.987 2.50922 10.9153 2.551L10.3619 2.87343L10.4826 3.51067C10.4982 3.59322 10.4016 3.64842 10.3405 3.59201L9.86802 3.15606L9.30977 3.46971C9.23752 3.51035 9.15596 3.43391 9.18983 3.35727L9.45127 2.76532L8.98552 2.32193C8.92533 2.26482 8.97152 2.16237 9.05358 2.1714Z" fill="var(--fill-0, #FFE15A)"/>
<path id="Vector_5" d="M10.056 8.46069L9.67883 8.98409L9.07014 8.79038C8.99133 8.76532 8.92651 8.85671 8.97476 8.92488L9.34739 9.45152L8.97826 9.98071C8.93045 10.0492 8.99589 10.1402 9.07451 10.1146L9.68189 9.91673L10.0625 10.4375C10.1117 10.5049 10.217 10.4697 10.2173 10.3857L10.2201 9.73675L10.8245 9.52936C10.9028 9.50246 10.9024 9.38977 10.824 9.36344L10.2183 9.16019L10.2112 8.51125C10.2102 8.42737 10.1048 8.3929 10.056 8.46069Z" fill="var(--fill-0, #FFE15A)"/>
<path id="Vector_6" d="M12.3522 6.99468L11.7181 7.06476L11.4476 6.47707C11.4126 6.40101 11.3026 6.41405 11.2857 6.49627L11.1553 7.13147L10.5224 7.2116C10.4405 7.22197 10.4186 7.3325 10.4903 7.37428L11.0438 7.69672L10.9231 8.33395C10.9075 8.4165 11.004 8.4717 11.0652 8.41529L11.5376 7.97934L12.0959 8.29299C12.1681 8.33363 12.2497 8.25719 12.2158 8.18056L11.9544 7.5886L12.4201 7.14521C12.4806 7.0881 12.4344 6.98565 12.3522 6.99468Z" fill="var(--fill-0, #FFE15A)"/>
</g>
</g>
</svg>
