<svg preserveAspectRatio="none" width="100%" height="100%" overflow="visible" style="display: block;" viewBox="0 0 20.0001 20" fill="none" xmlns="http://www.w3.org/2000/svg">
<g id="Fixer">
<path id="PaintMe" d="M11.7578 11.0626C11.9167 10.9747 12.1106 10.9801 12.2646 11.0763L16.2646 13.5763L16.3174 13.6134C16.4322 13.7076 16.5 13.8494 16.5 14.0001C16.5 14.1725 16.4108 14.3326 16.2646 14.424L12.2646 16.924C12.1106 17.0201 11.9167 17.0255 11.7578 16.9376C11.5989 16.8495 11.5 16.6818 11.5 16.5001V15.0001H3.99902V13.0001H11.5V11.5001C11.5 11.3184 11.5989 11.1507 11.7578 11.0626ZM7.73535 3.0763C7.88938 2.98012 8.08331 2.97468 8.24219 3.06263C8.40113 3.15075 8.5 3.31838 8.5 3.50013V5.00013H16V7.00013H8.5V8.50013C8.49995 8.68184 8.40113 8.84953 8.24219 8.93763C8.08334 9.02553 7.88936 9.02009 7.73535 8.92395L3.73535 6.42395L3.68262 6.38685C3.5678 6.29263 3.50004 6.15086 3.5 6.00013C3.5 5.82775 3.58919 5.66767 3.73535 5.5763L7.73535 3.0763Z" fill="var(--fill-0, #030306)" fill-opacity="0.88"/>
</g>
</svg>
