<svg preserveAspectRatio="none" width="100%" height="100%" overflow="visible" style="display: block;" viewBox="0 0 20.0001 20" fill="none" xmlns="http://www.w3.org/2000/svg">
<g id="Fixer">
<path id="PaintMe" d="M17 11C18.6569 11 20 12.3431 20 14C20 15.6569 18.6569 17 17 17H16V18H18V19H16V20H14V19H13V18H14V17H13V15H14V11H17ZM10.001 11.5C10.7391 11.5001 11.4039 11.5751 12.001 11.709V13.7773C11.4502 13.6045 10.7909 13.5001 10.001 13.5C7.47763 13.5001 6.29346 14.5637 5.69043 15.5293C5.37193 16.0395 5.19644 16.5577 5.10156 16.9521C5.05457 17.1476 5.02858 17.3085 5.01465 17.415C5.00774 17.4679 5.00299 17.5071 5.00098 17.5303C5.00028 17.5383 5.00007 17.5447 5 17.5488V17.5498L3.00098 17.4502V17.4424L3.00293 17.4385C3.00305 17.4364 3.00283 17.4341 3.00293 17.4316C3.00309 17.4279 3.0036 17.4235 3.00391 17.4189C3.00496 17.4032 3.00662 17.3824 3.00879 17.3574C3.01314 17.3074 3.02033 17.2388 3.03125 17.1553C3.05306 16.9885 3.09069 16.7581 3.15625 16.4854C3.28676 15.9425 3.53173 15.21 3.99316 14.4707C4.95094 12.9367 6.76764 11.5001 10.001 11.5ZM16 13V15H17C17.5523 15 18 14.5523 18 14C18 13.4477 17.5523 13 17 13H16ZM10 2C12.2089 2.00026 14 3.79102 14 6C14 8.20898 12.2089 9.99974 10 10C7.79102 9.99981 6 8.20902 6 6C6 3.79098 7.79102 2.00019 10 2ZM10 4C8.89559 4.00019 8 4.89555 8 6C8 7.10445 8.89559 7.99981 10 8C11.1043 7.99974 12 7.10441 12 6C12 4.89559 11.1043 4.00026 10 4Z" fill="var(--fill-0, #030306)" fill-opacity="0.88"/>
</g>
</svg>
