<svg preserveAspectRatio="none" width="100%" height="100%" overflow="visible" style="display: block;" viewBox="0 0 20.0001 20" fill="none" xmlns="http://www.w3.org/2000/svg">
<g id="Fixer">
<path id="PaintMe" d="M11.0238 2.77441C12.2082 4.43232 13.3429 5.44151 14.4164 6.58203C15.4744 7.70624 16.4286 8.92993 16.7396 10.7959C17.3755 14.6171 14.2161 18.2508 10.0062 18.251C5.79617 18.2508 2.63715 14.6165 3.27379 10.7949C3.5849 8.92921 4.53813 7.70615 5.59606 6.58203C6.66959 5.44141 7.80514 4.43257 8.98961 2.77441L10.0062 1.34961L11.0238 2.77441ZM10.0062 5.53516C9.03437 6.69033 8.10432 7.56398 7.41637 8.29492C6.47497 9.29521 5.92859 10.0728 5.73961 11.2061V11.207C5.37742 13.3846 7.21707 15.7508 10.0062 15.751C12.7954 15.7508 14.6361 13.3838 14.2738 11.2061C14.0848 10.0729 13.5373 9.29508 12.5961 8.29492C11.9081 7.56404 10.9779 6.69018 10.0062 5.53516Z" fill="var(--fill-0, #030306)" fill-opacity="0.88"/>
</g>
</svg>
