<svg preserveAspectRatio="none" width="26.8103" height="26.8103" overflow="visible" style="display: block;" viewBox="0 0 26.8103 26.8103" fill="none" xmlns="http://www.w3.org/2000/svg">
<g id="icon">
<path id="icon_2" d="M12.1112 23.3353C11.6758 18.2788 8.53117 15.1339 3.47487 14.6983C2.79198 14.6394 2.23394 14.0902 2.23419 13.4046C2.23444 12.7192 2.79222 12.1705 3.47487 12.1116C8.53093 11.6763 11.6763 8.53164 12.1117 3.47504C12.1706 2.79202 12.7197 2.23414 13.4053 2.23419C14.0907 2.23424 14.6395 2.7921 14.6983 3.47504C15.1337 8.53151 18.2779 11.6762 23.3354 12.1116C24.0183 12.1704 24.5764 12.7196 24.5761 13.4052C24.5759 14.0905 24.0181 14.6393 23.3354 14.698C18.2781 15.1334 15.1332 18.2785 14.6976 23.3353C14.639 24.0183 14.0899 24.5761 13.4045 24.5761C12.7189 24.5761 12.1701 24.0183 12.1112 23.3353Z" fill="url(#paint0_linear_151_34469)"/>
</g>
<defs>
<linearGradient id="paint0_linear_151_34469" x1="13.4051" y1="14.0394" x2="0.0771548" y2="27.3674" gradientUnits="userSpaceOnUse">
<stop stop-color="white"/>
<stop offset="1" stop-color="white" stop-opacity="0"/>
</linearGradient>
</defs>
</svg>
