<svg preserveAspectRatio="none" width="100%" height="100%" overflow="visible" style="display: block;" viewBox="0 0 833 111.544" fill="none" xmlns="http://www.w3.org/2000/svg">
<path id="Subtract" d="M0 47.6426C1.17451e-05 65.3098 0.00650994 74.1562 3.41699 80.9316C6.50361 87.0636 11.4803 92.0403 17.6123 95.127C24.4004 98.5438 33.267 98.5439 51 98.5439H782C799.733 98.5439 808.6 98.5438 815.388 95.127C821.52 92.0403 826.496 87.0636 829.583 80.9316C832.993 74.1562 832.999 65.3098 832.999 47.6426C832.999 47.6763 833 47.7103 833 47.7441V60.3438C833 78.265 833 87.2262 829.513 94.0713C826.445 100.092 821.549 104.989 815.527 108.057C808.682 111.544 799.721 111.544 781.8 111.544H51.2002C33.2789 111.544 24.3178 111.544 17.4727 108.057C11.4515 104.989 6.55525 100.092 3.4873 94.0713C-0.00024379 87.2262 0 78.265 0 60.3438V47.7441V47.6426ZM3.45508 14.0811C3.46591 14.0596 3.4764 14.038 3.4873 14.0166C3.54251 13.9083 3.59889 13.8 3.65527 13.6924C3.58767 13.8214 3.52098 13.951 3.45508 14.0811ZM829.513 14.0166C829.524 14.0379 829.533 14.0597 829.544 14.0811C829.478 13.951 829.411 13.8214 829.344 13.6924C829.4 13.8001 829.457 13.9081 829.513 14.0166ZM5.99414 9.89746C6.09054 9.76302 6.1887 9.62992 6.28711 9.49707C6.1887 9.62992 6.09054 9.76302 5.99414 9.89746ZM7.95117 7.43359C7.5756 7.86144 7.21102 8.29926 6.8584 8.74707C7.21102 8.29926 7.5756 7.86144 7.95117 7.43359ZM825.048 7.43359C825.423 7.86144 825.788 8.29926 826.141 8.74707C825.788 8.29926 825.423 7.86144 825.048 7.43359ZM8.81738 6.48633C8.5808 6.73497 8.34767 6.98696 8.11914 7.24316C8.34767 6.98696 8.5808 6.73497 8.81738 6.48633ZM824.182 6.48633C824.418 6.73497 824.651 6.98696 824.88 7.24316C824.651 6.98696 824.418 6.73497 824.182 6.48633ZM10.7383 4.62891C10.2705 5.0448 9.81546 5.47458 9.37305 5.91699C9.81546 5.47458 10.2705 5.0448 10.7383 4.62891ZM822.262 4.62891C822.73 5.0448 823.185 5.47458 823.627 5.91699C823.327 5.61745 823.022 5.3236 822.711 5.03613L822.262 4.62891ZM12.2031 3.40234C11.7553 3.75496 11.3175 4.11954 10.8896 4.49512C11.3175 4.11955 11.7553 3.75496 12.2031 3.40234ZM820.796 3.40234C821.244 3.75496 821.682 4.11955 822.109 4.49512C821.682 4.11955 821.244 3.75496 820.796 3.40234ZM13.2256 2.62988C13.3968 2.50583 13.5694 2.38343 13.7432 2.2627C13.5694 2.38343 13.3968 2.50583 13.2256 2.62988ZM17.1484 0.199219C17.256 0.142838 17.3643 0.0864518 17.4727 0.03125C17.4939 0.0204138 17.5158 0.010769 17.5371 0C17.4072 0.0658388 17.2773 0.131687 17.1484 0.199219ZM815.527 0.03125C815.635 0.0863208 815.743 0.142974 815.851 0.199219C815.722 0.131689 815.592 0.0658362 815.462 0C815.483 0.0108992 815.506 0.0202819 815.527 0.03125ZM5.71875 10.2871C5.80952 10.1564 5.90149 10.0267 5.99414 9.89746C5.90149 10.0267 5.80952 10.1564 5.71875 10.2871ZM826.712 9.49707C826.78 9.58835 826.847 9.67946 826.914 9.77148C826.847 9.67946 826.78 9.58835 826.712 9.49707ZM12.9531 2.83105C13.0438 2.76387 13.1341 2.69613 13.2256 2.62988C13.1341 2.69613 13.0438 2.76387 12.9531 2.83105ZM819.256 2.2627C819.398 2.36172 819.54 2.46222 819.681 2.56348C819.54 2.46222 819.398 2.36172 819.256 2.2627Z" fill="var(--fill-0, white)"/>
</svg>
