<svg preserveAspectRatio="none" width="100%" height="100%" overflow="visible" style="display: block;" viewBox="0 0 24 24" fill="none" xmlns="http://www.w3.org/2000/svg">
<g id="icon">
<g id="icon_2">
<path d="M3 9C3 8.17157 3.67157 7.5 4.5 7.5C5.32843 7.5 6 8.17157 6 9V14C6 14.8284 5.32843 15.5 4.5 15.5C3.67157 15.5 3 14.8284 3 14V9Z" fill="var(--fill-0, black)"/>
<path d="M8 5C8 4.17157 8.67157 3.5 9.5 3.5C10.3284 3.5 11 4.17157 11 5V18C11 18.8284 10.3284 19.5 9.5 19.5C8.67157 19.5 8 18.8284 8 18V5Z" fill="var(--fill-0, black)"/>
<path d="M13 8C13 7.17157 13.6716 6.5 14.5 6.5C15.3284 6.5 16 7.17157 16 8V15C16 15.8284 15.3284 16.5 14.5 16.5C13.6716 16.5 13 15.8284 13 15V8Z" fill="var(--fill-0, black)"/>
<path d="M18 10C18 9.17157 18.6716 8.5 19.5 8.5C20.3284 8.5 21 9.17157 21 10V13C21 13.8284 20.3284 14.5 19.5 14.5C18.6716 14.5 18 13.8284 18 13V10Z" fill="var(--fill-0, black)"/>
</g>
</g>
</svg>
